<?xml version="1.0" encoding="utf-8"?>
<!-- Generator: Adobe Illustrator 28.3.0, SVG Export Plug-In . SVG Version: 6.00 Build 0)  -->
<svg version="1.1" id="Layer_1" xmlns="http://www.w3.org/2000/svg" xmlns:xlink="http://www.w3.org/1999/xlink" x="0px" y="0px"
	 viewBox="0 0 512 512" style="enable-background:new 0 0 512 512;" xml:space="preserve">
<style type="text/css">
	.st0{fill:#091F40;}
	.st1{fill:#E31937;}
	.st2{fill:#B0B3B2;}
	.st3{fill:#FFFFFF;}
</style>
<g id="RMU_x5F_Primary_00000128443345290018402240000015728441437651823785_">
	<g>
		<path class="st0" d="M96.6,179.3c-5.9,0-18.7-0.1-18.7-0.1l0,39.9c15.3-2,39.5-2.2,39.5-23.6C117.5,182.3,106.4,179.8,96.6,179.3"
			/>
		<path class="st0" d="M490.2,143.3l-210.5,0c0,0-19.9,38.5-30.4,57.6l-27.9-57.6l-200.3,0l-10.7,46.9l15.2-0.4l0,93.9
			c0,0.8,0.1,1,0,1.1c0,0-0.5,0.5-3.5,1.5l-11.3,3.8L23,333.6c0,0,12.1-6.8,23.8-11.8c7.5-3.2,16.8-6.8,27.3-10
			c1.6,2.4,3.1,5,4.7,8.1c7.1,14.1,7.1,29,6.5,40c11.7,3.1,13.7,4.2,31,1.2c10.2-1.7,23.6-9.9,26.1-10.6c23.2-6.9,32.2-5.7,44.1-0.4
			l-6.1-17.1c16.4,0.3,28.8,1.2,46.9,4.1c30.2,4.8,63,17.9,75.5,21.2c24.8,6.6,44.5,8.9,64,9.8c46.4,2,81.2-21.6,81.2-21.6l-20-23.2
			l2.4-12.4c25,0.8,41.7-6.8,50-23.8c3.7-7.8,5.1-16.4,5.7-24.5c0.5-7.7,0.4-16.2,0.4-24.9v-46l0-1.6l15.1,0.8L490.2,143.3z
			 M431.7,343.2l-1.8,1c-0.9,0.5-2.6,1.6-5.4,3c-2.8,1.5-6.6,3.2-11.6,4.9c-9.9,3.3-24.1,6.3-43.5,5.8c-30-0.8-55.1-7.6-78.1-14.7
			c-11.5-3.5-22.5-7.2-33.4-10.2c-10.8-3-21.6-5.4-32.6-6.5c-32.6-3.3-68.2-4.4-94,3.6c-14.5,4.5-21.1,7.9-33.5,15.3l-2.5,1.5l0.1-3
			c0.2-9.2,0-12.6-4.4-23c-2.4-5.6-3.6-8-4.7-9.8c-0.6-0.9-1.2-1.6-1.9-2.4c-0.8-0.9-1.7-1.9-2.9-3.3l-1.1-1.2l1.2-1.1
			c9.6-8.4,19.9-13,39.1-18.6l0.3-0.1c16.2-4.7,41.3-9.5,76.7-6.9c16.9,1.2,36.2,4.1,58,9.4c15.1,3.7,35.2,11.6,58,18
			c22.7,6.4,48,11.2,73.6,8.8c6.1-0.6,20.1-4.4,32.6-9.3l2.8-1.1l-4.7,24.4L431.7,343.2z M475.6,179.6c-2.3,2.3-1.9,9-1.9,12.1v46
			c0,32.3,2.3,61.1-41,60.6l1.7-8.5c0,0-8.1,3.8-19.6,7.6c-31.7-3.6-69.7-20.5-69.7-55.5c0-19.8,0.8-39.6,0.8-59.3
			c0-7.6-2.9-9.4-8.9-9.9c-2.4,0.1-4.8,0.5-6.5,2c-2.2,1.8-2.4,4.8-2.5,7.4c-0.7,24.4-1.2,49-1.2,73.4c0,8.4,3.9,10,11.7,10.8
			l-4.5,14.6c-17.1-2-32-3.7-52.6-4.5l-4-14.9c3,0.1,7.2,0.3,9.6-1.6c3.8-3,3-36.1,3.1-43.1c-8.7,18.1-26.8,51.4-26.8,51.4
			l-28.4-0.4l-29-54.2c-0.2,12.8,0.2,25.6,0.2,38.3c0,7.4,3.1,8.8,9.9,8.8l1.7,0l-2.8,9c-35-4-68.2-2.3-97.1,5l-1.8,0.5
			c-2.7-7.3-4.6-15.6-5.3-18.4c-2.2-9.1-5.3-17-16.1-17c-5.5,0-11.4,1.5-16.8,2.5l0,27.5c0,4.5,0.5,8.9,6.1,8.9
			c1.9,0,3.9-0.4,5.8-0.9l-2,8.5c-9,4.8-16.5,10.2-22.1,15.8l0.2,0.2c-10.9,3.7-21.8,7.9-34.8,13.5l-4.9-17.4
			c7.5-2.6,12-6.1,12-14.6l0-95.2c0-7.7-1.9-11.4-10.1-11.4l-1.8,0.1l4.8-21.3h68.3c25.1,0,57,6.7,57,36.3c0,17.2-12.6,28-27.2,34.5
			c31.4,4.6,16.6,37.2,35.6,37.5c1.9-0.5,3.7-1.2,4.9-2.4c2-2,2.3-4.9,2.4-7.5c0.6-24.1-0.1-48.4-0.1-72.5c0-8.6-4.2-9.4-11.8-9.3
			l5-16.5h43.9l39.6,78.7c14.4-26.2,28.8-52.3,42.9-78.7h43.9h59l4.2,18.1c-2.9-0.1-7.3-0.2-9.6,2c-0.7,0.7-1.6,8-1.6,8l-0.6,57.9
			c0,0-1.6,25.7,29.2,30.4c3.9,0,9.6-0.1,12.8-2.5c4.6-3.5,6-9.4,6.1-14.9c0.6-22.8,1-45.6,1-68.4c0-9.1-2.9-11.4-11.8-11.6
			l5.1-18.9h50.7l5.1,21.5C482.1,177.2,478.1,177.1,475.6,179.6"/>
	</g>
	<g>
		<path class="st1" d="M422.7,303.4l-2.8,1.1c-12.4,4.9-26.5,8.7-32.6,9.3c-25.6,2.4-50.9-2.5-73.6-8.8c-22.8-6.4-42.9-14.4-58-18
			c-21.8-5.3-41-8.2-58-9.4c-35.4-2.5-60.5,2.2-76.7,6.9l-0.3,0.1c-19.2,5.6-29.5,10.3-39.1,18.6l-1.2,1.1l1.1,1.2
			c1.2,1.4,2.1,2.4,2.9,3.3c0.7,0.8,1.3,1.5,1.9,2.4c1.2,1.7,2.4,4.2,4.7,9.8c4.4,10.4,4.5,13.8,4.4,23l-0.1,3l2.5-1.5
			c12.4-7.4,19-10.8,33.5-15.3c25.8-8,61.3-6.9,94-3.6c11,1.1,21.7,3.5,32.6,6.5c10.9,3,21.9,6.6,33.4,10.2
			c23,7.1,48.1,13.9,78.1,14.7c19.4,0.5,33.6-2.4,43.4-5.8c4.9-1.7,8.8-3.4,11.6-4.9c2.8-1.4,4.5-2.6,5.4-3l1.8-1l-13.7-15.4
			L422.7,303.4z"/>
		<path class="st2" d="M494.6,198.8l17.4,1l-15.3-64.7l-221.9,0c0,0-17.2,33.6-25.2,48.2L226.4,135l-211.9,0L0,198.8l17.4-0.5
			l0.2,81l-16.8,5.7l17.1,61c0,0,20.7-11.7,32.1-16.6c5.6-2.4,12.3-5,19.8-7.5c0.3,0.7,0.7,1.4,1.1,2.1c6,12,6.2,24.9,5.6,35.5
			l-0.4,7.1l6.9,1.9c3,0.8,5.4,1.5,7.6,2c2.6,0.6,4.9,1,7.5,1.2c5.3,0.4,11-0.3,19.7-1.8c6.4-1.1,13.2-4,18.3-6.4
			c2.6-1.2,4.8-2.4,6.7-3.3l2.2-1.1c21.9-6.5,33-3.8,40.4-1.3l14,4.9l-6.3-20.4c10.4,0.5,20.2,1.6,32.9,3.6
			c29.8,4.7,62.2,17.7,74.5,21c25.5,6.9,45.8,9.2,65.9,10.1c49.3,2.1,86-22.8,86.5-23.1l8.2-5.5l-13.5-15.6l-12.4-15.2l4.1,0.1
			c0,0,4.3,0.3,11.7-0.6s13.5-3.5,13.5-3.5c10.1-4.5,18-12,23.2-22.8c4.4-9.1,5.9-19,6.5-27.5c0.6-7.9,0.4-16.6,0.4-25.4
			L494.6,198.8L494.6,198.8z M486.3,190.1l0,1.6v46c0,8.7,0.1,17.1-0.4,24.9c-0.6,8.1-1.9,16.7-5.7,24.5c-8.2,17.1-25,24.6-50,23.8
			l-2.4,12.4l20,23.2c0,0-34.8,23.6-81.2,21.6c-19.6-0.8-39.3-3.1-64-9.8c-12.5-3.3-45.3-16.4-75.4-21.2
			c-18.1-2.9-30.5-3.8-46.9-4.1l6.1,17.1c-11.8-5.3-20.8-6.5-44.1,0.4c-2.5,0.7-15.9,8.9-26.1,10.6c-17.3,2.9-19.3,1.9-31-1.2
			c0.6-11,0.6-25.9-6.5-40c-1.6-3.2-3.1-5.8-4.7-8.1c-10.5,3.2-19.9,6.8-27.3,10c-11.7,5-23.8,11.8-23.8,11.8l-12.2-43.4l11.3-3.8
			c2.9-1,3.5-1.5,3.5-1.5c0-0.1,0-0.3,0-1.1l0-93.9l-15.2,0.4L21,143.2l200.3,0l27.9,57.6c10.5-19.1,30.4-57.6,30.4-57.6l210.5,0
			l11.3,47.6L486.3,190.1z"/>
	</g>
	<g>
		<path class="st3" d="M429.5,155.9l-5.1,18.9c8.9,0.3,11.8,2.6,11.8,11.6c0,22.8-0.4,45.6-1,68.4c-0.1,5.5-1.5,11.3-6.1,14.9
			c-3.2,2.4-8.9,2.5-12.8,2.5c-30.8-4.8-29.2-30.4-29.2-30.4l0.6-57.9c0,0,0.9-7.3,1.6-8c2.3-2.2,6.7-2.1,9.6-2l-4.2-18.1h-59h-43.9
			c-14.1,26.3-28.5,52.5-42.9,78.7l-39.6-78.7h-43.9l-5,16.5c7.6-0.1,11.8,0.7,11.8,9.3c0,24.1,0.7,48.4,0.1,72.5
			c-0.1,2.7-0.4,5.6-2.4,7.5c-1.2,1.2-3,1.9-4.9,2.4c-19-0.4-4.2-32.9-35.6-37.5c14.6-6.5,27.2-17.3,27.2-34.5
			c0-29.6-31.9-36.3-57-36.3H31.1l-4.8,21.3l1.8-0.1c8.2,0,10.1,3.7,10.1,11.4l0,95.2c0,8.5-4.5,12-12,14.6l4.9,17.4
			c13-5.7,24-9.9,34.8-13.5l-0.2-0.2c5.5-5.5,13.1-11,22.1-15.8l2-8.5c-1.9,0.5-3.8,0.9-5.8,0.9c-5.6,0-6.1-4.3-6.1-8.9l0-27.5
			c5.4-1,11.3-2.5,16.8-2.5c10.9,0,13.9,7.8,16.1,17c0.7,2.9,2.6,11.2,5.3,18.4l1.8-0.5c28.9-7.4,62.1-9,97.1-5l2.8-9l-1.7,0
			c-6.8,0-9.9-1.4-9.9-8.8c0-12.8-0.4-25.6-0.2-38.3l29,54.2l28.4,0.4c0,0,18.1-33.3,26.8-51.4c-0.1,7,0.8,40-3.1,43.1
			c-2.5,2-6.7,1.8-9.6,1.6l4,14.9c20.5,0.8,35.5,2.5,52.6,4.5l4.5-14.6c-7.8-0.8-11.7-2.4-11.7-10.8c0-24.4,0.5-49,1.2-73.4
			c0.1-2.6,0.3-5.6,2.5-7.4c1.7-1.4,4.2-1.9,6.5-2c6.1,0.4,8.9,2.3,8.9,9.9c0,19.8-0.8,39.6-0.8,59.3c0,35,38,51.9,69.7,55.5
			c11.5-3.8,19.6-7.6,19.6-7.6l-1.7,8.5c43.3,0.5,41-28.3,41-60.6v-46c0-3.1-0.4-9.8,1.9-12.1c2.4-2.4,6.5-2.4,9.6-2.2l-5.1-21.5
			L429.5,155.9z M77.9,219.1l0-39.9c0,0,12.8,0.1,18.7,0.1c9.9,0.4,20.9,3,20.9,16.2C117.5,216.9,93.2,217.1,77.9,219.1"/>
		<path class="st3" d="M130,311c0.1,0.2,0.1,0.5,0.1,0.6c0,0.4-0.2,0.7-0.7,1.1c-2.6,2.3-4.5,3.3-7,4.1c-5.3,1.8-8.4,0.4-8.4-3.5
			c0-3.9,3.4-7.7,8.6-9.5c3.8-1.3,7.4-1.1,7.4,0.2c0,0.1-0.1,0.3-0.1,0.5l0.6,0l3.9-9.1l-0.6,0c-0.4,0.6-0.7,1-1.2,1.1
			c-1.2,0.4-4.8-0.4-10.8,1.6c-9.4,3.2-15.1,10.6-15.1,17.7c0,7.2,5.5,10.7,15.7,7.2c7.1-2.5,10.5-6.3,11.3-6.6
			c0.2-0.1,0.5,0,0.9,0.3l0.6-0.5l-4.6-6L130,311z"/>
		<path class="st3" d="M157.1,289.8c-8.6,1.2-14.3,7.6-14.3,14.6s5.8,11.8,14.3,10.6c8.5-1.2,14.3-7.6,14.3-14.6
			S165.7,288.6,157.1,289.8 M157.1,309.3c-4.5,0.6-7.3-1.8-7.3-5.9s2.9-7.4,7.2-8c4.4-0.6,7.2,1.9,7.2,5.9S161.5,308.7,157.1,309.3"
			/>
		<path class="st3" d="M205.1,308.2l-15-1v-16.6c0-0.9,0.2-1.1,1.2-1.3v-0.6l-9.2-0.6v0.6c1,0.3,1.2,0.5,1.2,1.4v20.3
			c0,0.9-0.2,1.1-1.2,1.3v0.6l23,1.6c0.9,0.1,1.1,0.3,1.3,1.2l0.6,0v-8.1l-0.6,0C206.2,308.1,206,308.3,205.1,308.2"/>
		<path class="st3" d="M228.8,292.1c-8.6-1.4-14.3,3.3-14.3,10.3s5.8,13.5,14.3,14.9c8.5,1.4,14.3-3.3,14.3-10.3
			S237.4,293.5,228.8,292.1 M228.8,311.7c-4.5-0.7-7.3-3.9-7.3-8.1c0-4.1,2.9-6.5,7.2-5.8c4.4,0.7,7.2,4,7.2,8.1
			C236,310,233.2,312.4,228.8,311.7"/>
		<path class="st3" d="M272.1,302.5c1,0.5,1.2,0.8,1.2,1.6v11.7l-10.2-13.8c-0.4-0.6-0.7-0.9-0.7-1.2s0.3-0.5,0.9-0.6v-0.6
			l-10.7-2.7v0.6c1,0.5,1.2,0.8,1.2,1.6v20.3c0,0.9-0.2,1.1-1.2,1v0.6l8.2,2v-0.6c-1-0.5-1.2-0.8-1.2-1.6v-13.9l12.2,16.4
			c0.4,0.6,0.7,1,0.7,1.3s-0.3,0.5-0.9,0.6v0.6l8.8,2.2v-0.6c-1-0.5-1.2-0.8-1.2-1.6v-20.3c0-0.9,0.2-1.1,1.2-1v-0.6l-8.3-2.1
			L272.1,302.5L272.1,302.5z"/>
		<path class="st3" d="M291.9,308c1,0.5,1.2,0.8,1.2,1.7V330c0,0.9-0.2,1.1-1.2,1v0.6l9.2,2.6v-0.6c-1-0.5-1.2-0.8-1.2-1.7v-20.3
			c0-0.9,0.2-1,1.2-1V310l-9.2-2.6V308z"/>
		<path class="st3" d="M337.9,341.9l-7.7-21.4c-0.3-0.8-0.4-1.4-0.4-1.5c0-0.5,0.2-0.6,0.7-0.6v-0.6l-12.1-3v0.6
			c0.5,0.2,0.7,0.4,0.7,0.9c0,0.2-0.1,0.7-0.4,1.3l-6.4,15.9c-0.5,1.3-0.8,2.4-2.2,2.8v0.6l8.3,2.1v-0.6c-0.6-0.4-1-0.8-1-1.4
			c0-0.2,0-0.5,0.2-0.7l1-2.4l11.3,2.8l1,2.9c0.2,0.5,0.3,0.9,0.3,1.1c0,0.4-0.3,0.6-0.9,0.6v0.6l8.9,2.2v-0.6
			C338.3,343,338.1,342.5,337.9,341.9 M320,330.2l3.9-9.7l4.2,11.8L320,330.2z"/>
		<path class="st3" d="M371.5,342.1l-15-1.3v-16.6c0-0.9,0.2-1.1,1.2-1.2v-0.6l-9.2-0.8v0.6c1,0.3,1.2,0.6,1.2,1.5v20.3
			c0,0.9-0.2,1.1-1.2,1.2v0.6l23,2c0.9,0.1,1.1,0.3,1.3,1.3l0.6,0.1v-8.1l-0.6-0.1C372.6,342,372.4,342.2,371.5,342.1"/>
		<path class="st3" d="M396.3,331c-5.2,0.3-7.9,0.6-7.9-1.3c0-1.4,2.2-2.9,6-3.3c4.5-0.5,8.8,0.5,8.8,1.8c0,0.1-0.1,0.3-0.1,0.6
			l0.6,0.2l3-6.8l-0.6-0.2c-0.3,0.6-0.6,0.7-1.1,0.7c-1.4,0.1-5.3-1.4-10.9-0.9c-7.4,0.8-11.9,4.5-11.9,8.9c0,4.4,3.8,6.2,11.3,5.7
			c4.5-0.3,7.5-0.6,7.5,2c0,1.7-2.1,3.1-6,3.5c-5.8,0.6-10.3-1-10.3-2.6c0-0.1,0-0.3,0.1-0.4l-0.6-0.2l-3.4,7.8l0.6,0.2
			c0.4-0.5,0.6-0.8,0.9-0.8c0.5,0,4.5,1.7,12.6,0.9c7.8-0.8,12.6-5,12.6-9.7C407.4,332.2,403.8,330.6,396.3,331"/>
		<path class="st2" d="M449.5,321c0,5.6-4.5,10.1-10.1,10.1c-5.6,0-10.1-4.5-10.1-10.1c0-5.6,4.5-10.1,10.1-10.1
			C445,310.8,449.5,315.4,449.5,321"/>
		<path class="st0" d="M446.9,320.9c0,4.1-3.2,7.4-7.5,7.4c-4.2,0-7.5-3.2-7.5-7.4c0-4,3.3-7.3,7.5-7.3
			C443.6,313.6,446.9,316.9,446.9,320.9 M433.7,320.9c0,3.2,2.4,5.8,5.7,5.8c3.2,0,5.6-2.6,5.6-5.8c0-3.2-2.4-5.9-5.6-5.9
			C436.1,315.1,433.7,317.7,433.7,320.9 M438.2,324.8h-1.7v-7.3c0.7-0.1,1.6-0.2,2.8-0.2c1.4,0,2,0.2,2.5,0.5
			c0.4,0.3,0.7,0.9,0.7,1.6c0,0.8-0.6,1.4-1.5,1.7v0.1c0.7,0.3,1.1,0.8,1.3,1.8c0.2,1.1,0.4,1.6,0.5,1.8h-1.8
			c-0.2-0.3-0.4-0.9-0.6-1.8c-0.1-0.8-0.6-1.2-1.5-1.2h-0.8L438.2,324.8L438.2,324.8z M438.3,320.6h0.8c0.9,0,1.7-0.3,1.7-1.1
			c0-0.7-0.5-1.1-1.6-1.1c-0.4,0-0.8,0-0.9,0.1L438.3,320.6L438.3,320.6z"/>
	</g>
</g>
</svg>
