<?xml version="1.0" encoding="UTF-8"?>
<svg version="1.1" xmlns="http://www.w3.org/2000/svg" width="1024" height="392">
<path d="M0 0 C337.92 0 675.84 0 1024 0 C1024 129.36 1024 258.72 1024 392 C686.08 392 348.16 392 0 392 C0 262.64 0 133.28 0 0 Z " fill="#FDFDFD" transform="translate(0,0)"/>
<path d="M0 0 C5.56485625 3.93042295 9.63270864 10.14499098 13.7890625 15.44921875 C16.9722003 19.23334764 16.9722003 19.23334764 21 22 C24.48476118 21.81875099 27.71304029 20.87458233 31.0625 19.9375 C33.0441117 19.43560134 35.02723082 18.93962151 37.01171875 18.44921875 C38.5129126 18.07482666 38.5129126 18.07482666 40.04443359 17.69287109 C44.45815269 16.65816642 48.89235512 15.91407911 53.375 15.25 C54.47533569 15.07778931 54.47533569 15.07778931 55.59790039 14.90209961 C96.37379826 8.999447 139.16781431 12.26770274 179 22 C179.70318359 22.16951172 180.40636719 22.33902344 181.13085938 22.51367188 C184.4290758 23.31093382 187.71960292 24.13228206 191 25 C191.35771484 24.01386719 191.35771484 24.01386719 191.72265625 23.0078125 C193.36647347 19.13705023 195.37404651 15.53521313 197.4375 11.875 C197.83259766 11.15957031 198.22769531 10.44414063 198.63476562 9.70703125 C199.02212891 9.01738281 199.40949219 8.32773437 199.80859375 7.6171875 C200.15720459 6.99440918 200.50581543 6.37163086 200.86499023 5.72998047 C202.09330773 3.85778047 203.27785222 2.43435895 205 1 C210.98031278 0.25432509 215.47597636 1.98286808 220.875 4.25 C221.72562012 4.5991748 222.57624023 4.94834961 223.45263672 5.30810547 C230.77400675 8.36996052 237.96201676 11.71141578 245.125 15.125 C246.1547998 15.61516602 247.18459961 16.10533203 248.24560547 16.61035156 C266.08173896 25.25519499 266.08173896 25.25519499 270 30 C271.06621981 36.62222458 268.29381111 40.85100509 265 46.3125 C264.05909773 47.91076236 263.12142543 49.51093205 262.1875 51.11328125 C261.76855469 51.81235596 261.34960938 52.51143066 260.91796875 53.23168945 C259.84642028 54.96378141 259.84642028 54.96378141 260 57 C262.36509608 58.72144991 264.74103009 60.33915072 267.1875 61.9375 C278.12126573 69.29032753 287.69849484 77.55406551 297.0625 86.8125 C297.69422119 87.43479492 298.32594238 88.05708984 298.97680664 88.69824219 C307.99440899 97.78036903 307.99440899 97.78036903 308.0078125 103.1015625 C306.83197668 106.48322986 305.50863933 107.97347804 302.875 110.375 C300.10545689 112.93371284 297.52315632 115.51928618 295.0859375 118.390625 C289.91863361 124.36815767 284.26709106 129.88192424 278.67382812 135.45654297 C276.73710444 137.38785956 274.80584276 139.32452454 272.875 141.26171875 C271.64094591 142.49511283 270.40658208 143.72819711 269.171875 144.9609375 C268.59685242 145.53798431 268.02182983 146.11503113 267.42938232 146.70956421 C261.30100286 152.8020213 261.30100286 152.8020213 257.125 153.4375 C251.2355901 152.61298261 247.53606667 146.44658045 243.6875 142.1875 C242.80449219 141.21167969 241.92148437 140.23585937 241.01171875 139.23046875 C240.01591797 138.12638672 240.01591797 138.12638672 239 137 C235.60031646 147.19905063 236.84641225 159.18545297 236.86962891 169.81689453 C236.87501261 172.75688778 236.86964592 175.69673 236.86328125 178.63671875 C236.86394168 180.52343783 236.86522213 182.41015682 236.8671875 184.296875 C236.86415115 185.60177887 236.86415115 185.60177887 236.86105347 186.93304443 C236.8793487 191.72054912 237.23562265 196.26041055 238 201 C238.06252492 202.97828849 238.08693365 204.95837451 238.0625 206.9375 C238.05347656 207.89527344 238.04445313 208.85304687 238.03515625 209.83984375 C238.01775391 210.90912109 238.01775391 210.90912109 238 212 C240.69697129 209.38091957 243.25364327 206.75052393 245.6484375 203.8515625 C246.32132813 203.05685547 246.32132813 203.05685547 247.0078125 202.24609375 C247.92767481 201.15539987 248.83121555 200.05075194 249.71875 198.93359375 C251.0859375 197.3515625 251.0859375 197.3515625 254 195 C259.52997849 194.95890498 262.26522972 196.56567601 266.08398438 200.22935486 C266.67501953 200.82526932 267.26605469 201.42118378 267.875 202.03515625 C268.51501953 202.65713394 269.15503906 203.27911163 269.81445312 203.91993713 C271.18255226 205.25134503 272.5447108 206.58888003 273.90136719 207.9319458 C275.98953916 209.98969158 278.10275831 212.01767084 280.2265625 214.03857422 C283.80052283 217.44354972 287.3378033 220.88342857 290.85839844 224.34350586 C292.30706396 225.75996781 293.76370575 227.16831049 295.22753906 228.5690918 C297.3793049 230.63013479 299.50414923 232.71581102 301.625 234.80859375 C302.28306641 235.42850693 302.94113281 236.0484201 303.61914062 236.68711853 C305.32342687 238.39895317 306.76075758 239.92613352 308 242 C307.90083786 252.70472452 298.06058122 260.80940808 291 268 C285.67749663 272.92432915 280.03347042 277.38414755 274.25 281.75 C273.50878906 282.31332031 272.76757812 282.87664062 272.00390625 283.45703125 C268.67787917 285.98290101 265.34224515 288.49563328 262 291 C263.64454331 296.64713551 266.31943717 301.34934876 269.34179688 306.34570312 C271.18811417 309.60607832 271.98345753 311.80213489 272.30078125 315.59765625 C270.31877788 320.78181521 266.74107889 322.41006912 262 325 C261.09008301 325.50337891 260.18016602 326.00675781 259.24267578 326.52539062 C247.10156693 333.03723514 234.62801809 338.82377475 221.8125 343.875 C220.73299072 344.30973633 219.65348145 344.74447266 218.54125977 345.19238281 C212.92641475 347.33111741 208.83911273 348.85963879 203 347 C201.03125 345.65234375 201.03125 345.65234375 199.5 343.9375 C198.92507813 343.3084375 198.35015625 342.679375 197.7578125 342.03125 C197.17773438 341.3609375 196.59765625 340.690625 196 340 C195.39929688 339.3296875 194.79859375 338.659375 194.1796875 337.96875 C189.44546069 332.64018303 189.44546069 332.64018303 187.6953125 330.125 C186.4104063 328.20323185 186.4104063 328.20323185 184 326 C181.54514648 326.16516824 179.39441636 326.49361403 177 327 C176.19336914 327.16910889 175.38673828 327.33821777 174.55566406 327.51245117 C172.69478421 327.90940057 170.83472544 328.31021145 168.9753418 328.71411133 C131.711449 336.65752087 91.66906559 338.31601135 54 332 C52.00798394 331.69419364 50.01579242 331.3895283 48.0234375 331.0859375 C20.46115302 326.73057651 20.46115302 326.73057651 11 322 C10.7628125 322.81984375 10.525625 323.6396875 10.28125 324.484375 C8.75087905 328.68356357 6.7175124 332.38175152 4.5 336.25 C3.89478516 337.32894531 3.89478516 337.32894531 3.27734375 338.4296875 C0.26968344 343.73031656 0.26968344 343.73031656 -2 346 C-7.7828236 346.84269314 -13.15237051 345.7408114 -18.5625 343.6875 C-19.26866455 343.4282373 -19.9748291 343.16897461 -20.70239258 342.90185547 C-60.38806226 327.88062427 -60.38806226 327.88062427 -67.91796875 318.6484375 C-69.34586712 315.15343717 -69.09910318 313.61512249 -68 310 C-66.62692921 307.1788077 -65.05472933 304.49962684 -63.4375 301.8125 C-62.59705135 300.40580067 -61.76215187 298.99576686 -60.93359375 297.58203125 C-60.56290771 296.96561768 -60.19222168 296.3492041 -59.81030273 295.71411133 C-58.78631115 293.86396131 -58.78631115 293.86396131 -59 291 C-61.31423556 289.15317777 -61.31423556 289.15317777 -64.3125 287.375 C-70.60166217 283.33249506 -76.32249123 278.87361372 -82 274 C-82.83273437 273.29101562 -83.66546875 272.58203125 -84.5234375 271.8515625 C-108.5707587 250.8386036 -128.87323953 220.72299145 -131.2878418 188.11254883 C-131.38141496 184.76849593 -131.42247009 181.44027174 -131.39111328 178.09594727 C-131.37503197 176.06653411 -131.39106912 174.03911917 -131.41015625 172.00976562 C-131.43203545 159.40401691 -129.38183161 147.36497208 -124.875 135.5625 C-124.57424561 134.76739014 -124.27349121 133.97228027 -123.96362305 133.15307617 C-111.36077627 100.98071102 -85.98681658 76.22498647 -58 57 C-59.47881725 53.87483453 -60.95811322 50.7498959 -62.4375 47.625 C-62.85837891 46.73554687 -63.27925781 45.84609375 -63.71289062 44.9296875 C-64.11572266 44.07890625 -64.51855469 43.228125 -64.93359375 42.3515625 C-65.30540771 41.56604004 -65.67722168 40.78051758 -66.06030273 39.97119141 C-66.69424858 38.641371 -67.34116624 37.31766752 -68 36 C-68.3125 33.125 -68.3125 33.125 -68 30 C-65.36146696 26.88344995 -62.57571769 25.0082394 -58.984375 23.1171875 C-57.99171631 22.59431152 -56.99905762 22.07143555 -55.97631836 21.53271484 C-54.37929077 20.712146 -54.37929077 20.712146 -52.75 19.875 C-51.64986572 19.30604004 -50.54973145 18.73708008 -49.41625977 18.15087891 C-38.21264987 12.44893486 -26.70568279 7.56857452 -15 3 C-14.23067139 2.69819824 -13.46134277 2.39639648 -12.66870117 2.08544922 C-8.15936776 0.34953937 -4.84206443 -0.88037535 0 0 Z " fill="#78AAD4" transform="translate(697,28)"/>
<path d="M0 0 C66.33 0 132.66 0 201 0 C201 12.54 201 25.08 201 38 C157.77 38 114.54 38 70 38 C70.99 46.58 71.98 55.16 73 64 C75.46147445 87.68282821 77.76086142 111.1939929 74.5 134.90625 C73.93104922 139.20224069 73.73493181 143.48510692 73.5625 147.8125 C73.03037098 160.59724092 71.44626391 173.29288881 70 186 C77.59 186 85.18 186 93 186 C93 197.04536102 91.31600198 208.03331687 90 219 C60.3 219 30.6 219 0 219 C0 213.99233699 0.01917103 211.07076209 1.21484375 206.51953125 C1.61932739 204.92963379 1.61932739 204.92963379 2.03198242 203.30761719 C2.33080322 202.15422852 2.62962402 201.00083984 2.9375 199.8125 C6.69006044 184.85714028 9.78256912 169.78944633 12.80249023 154.67114258 C14.50118235 146.18803495 16.23702095 137.72178501 18.20703125 129.296875 C18.45570198 128.22835297 18.45570198 128.22835297 18.70939636 127.13824463 C19.87269299 122.25461402 19.87269299 122.25461402 21 120 C19.82904785 120.01047363 18.6580957 120.02094727 17.45166016 120.03173828 C13.11689295 120.06787497 8.78213911 120.09087733 4.44726562 120.10986328 C2.56931318 120.11993534 0.69137647 120.13359362 -1.18652344 120.15087891 C-3.8822009 120.17507453 -6.57767146 120.18647083 -9.2734375 120.1953125 C-10.11619232 120.20563507 -10.95894714 120.21595764 -11.82723999 120.22659302 C-13.88621247 120.22699144 -15.94467935 120.12257588 -18 120 C-18.99 119.01 -18.99 119.01 -20 118 C-21.34485202 118.28330538 -22.67566516 118.63254101 -24 119 C-28.86450095 119.37234535 -33.73312454 119.54987611 -38.60839844 119.72241211 C-40.20316126 119.78248433 -41.79761218 119.85150125 -43.39160156 119.92944336 C-45.69824743 120.04201491 -48.00450669 120.12749675 -50.3125 120.20703125 C-51.02301514 120.24641312 -51.73353027 120.28579498 -52.46557617 120.32637024 C-55.90122921 120.4143609 -57.64249044 120.27627391 -60.40136719 118.14428711 C-64.88603322 112.12888978 -67.02077926 104.40064962 -66 97 C-64.20636089 94.1899654 -62.98119065 92.49059532 -60 91 C-58.66766974 90.92101023 -57.33140983 90.90305421 -55.99682617 90.91821289 C-55.17224411 90.9247438 -54.34766205 90.93127472 -53.49809265 90.93800354 C-52.60540176 90.94943893 -51.71271088 90.96087433 -50.79296875 90.97265625 C-48.90820498 90.98530623 -47.02343926 90.99766691 -45.13867188 91.00976562 C-42.16294277 91.03456132 -39.18731487 91.06250208 -36.21166992 91.09594727 C-33.3429297 91.1261997 -30.4743179 91.14394345 -27.60546875 91.16015625 C-26.71885056 91.17361588 -25.83223236 91.1870755 -24.91874695 91.20094299 C-20.4254955 91.2191455 -17.12334923 90.97590092 -13 89 C-7.9286727 88.5215729 -4.42777797 89.36405287 0.10546875 91.44140625 C3.33967915 92.39499818 5.74798424 91.09520596 8.8125 89.9375 C12.35013835 88.89701813 15.33129562 88.93487507 19 89 C18.87995605 88.46606628 18.75991211 87.93213257 18.63623047 87.38201904 C15.82567381 74.88026377 13.01867718 62.37771596 10.21586609 49.8742218 C8.84162771 43.74553671 7.46350579 37.61775527 6.07962036 31.49124146 C5.32817229 28.16167151 4.58003406 24.83136426 3.83276367 21.50085449 C3.48727205 19.96462464 3.14027839 18.42873178 2.79174805 16.89318848 C2.31169372 14.77730318 1.83685736 12.66031186 1.36328125 10.54296875 C1.09813721 9.36758545 0.83299316 8.19220215 0.55981445 6.98120117 C0 4 0 4 0 0 Z " fill="#020202" transform="translate(74,94)"/>
<path d="M0 0 C6.52282356 1.29410728 12.47162173 3.11853843 18.625 5.625 C19.92824219 6.15395874 19.92824219 6.15395874 21.2578125 6.69360352 C47.51937548 17.56270445 72.40680509 35.84438151 85 62 C87.42248922 68.23021399 88.98045007 74.40233553 90 81 C101.23780024 81.82910116 101.23780024 81.82910116 111.1171875 77.51953125 C112.82092112 75.51803263 114.51126175 73.50505026 116.1875 71.48046875 C121.32612749 66.94848478 127.39711064 67.61683638 134 68 C135.98 71.465 135.98 71.465 138 75 C140.475 71.04 140.475 71.04 143 67 C145.0507842 67.4518677 147.10037832 67.90964784 149.14453125 68.390625 C151.21044059 68.83150305 153.29556933 69.18529481 155.38671875 69.484375 C158.81668812 70.05283577 161.80315111 70.62414099 165 72 C166.96314543 74.88064682 167.63197978 77.55792855 168 81 C169.65 79.02 171.3 77.04 173 75 C177.11928424 76.29815472 180.95736413 77.83409686 184.84375 79.71484375 C185.92527344 80.23626953 187.00679687 80.75769531 188.12109375 81.29492188 C189.79365234 82.10799805 189.79365234 82.10799805 191.5 82.9375 C192.61503906 83.47568359 193.73007812 84.01386719 194.87890625 84.56835938 C199.93627949 87.01265598 204.97941746 89.48086968 210 92 C210 92.66 210 93.32 210 94 C205.38413507 96.47815863 200.75785356 98.93513515 196.12060547 101.37304688 C194.54431235 102.20551146 192.9710331 103.04370888 191.40087891 103.88769531 C189.14470877 105.09915748 186.87854035 106.28966043 184.609375 107.4765625 C183.55759064 108.04982773 183.55759064 108.04982773 182.48455811 108.63467407 C177.57388792 111.16669392 177.57388792 111.16669392 174.66503906 110.32177734 C174.11557617 109.88559082 173.56611328 109.4494043 173 109 C172.2575 108.46375 171.515 107.9275 170.75 107.375 C169.88375 106.694375 169.88375 106.694375 169 106 C168.34 108.64 167.68 111.28 167 114 C163.91882573 114.84145956 160.83474379 115.67173062 157.75 116.5 C156.44095703 116.85771484 156.44095703 116.85771484 155.10546875 117.22265625 C154.26113281 117.44824219 153.41679687 117.67382812 152.546875 117.90625 C151.77182617 118.11572266 150.99677734 118.32519531 150.19824219 118.54101562 C148 119 148 119 144 119 C143.0234375 117.20963542 142.046875 115.41927083 141.0703125 113.62890625 C140.08589976 111.83381685 140.08589976 111.83381685 138 111 C137.01 113.97 136.02 116.94 135 120 C126.47581605 120.37061669 119.52477888 119.7715062 112.875 114 C110.6171875 111.875 110.6171875 111.875 109 110 C109 109.34 109 108.68 109 108 C103.06 108 97.12 108 91 108 C90.773125 109.505625 90.54625 111.01125 90.3125 112.5625 C86.64579599 132.20196941 78.041022 147.98002901 64 162 C63.35675781 162.71414063 62.71351563 163.42828125 62.05078125 164.1640625 C52.05239368 175.05167759 38.23799814 181.88003907 25 188 C23.83726562 188.54527344 22.67453125 189.09054687 21.4765625 189.65234375 C5.95912271 196.6298653 -9.82265715 199.9428299 -26.55371094 202.60205078 C-29.35869833 203.05835113 -32.14585754 203.59384679 -34.9375 204.125 C-59.45982169 207.98786924 -84.26155471 207.19808364 -109 207 C-109 196.11 -109 185.22 -109 174 C-104.65328125 173.96132813 -104.65328125 173.96132813 -100.21875 173.921875 C-70.39600999 173.61015809 -70.39600999 173.61015809 -41 169 C-39.47922411 168.67421089 -37.95839274 168.34868068 -36.4375 168.0234375 C-17.49247696 163.79064837 0.96024707 155.82214816 11.8125 139.125 C20.0712949 125.89548789 22.35425264 113.64432673 22.3125 98.1875 C22.32861328 97.00607422 22.34472656 95.82464844 22.36132812 94.60742188 C22.37094071 77.06445247 17.41760835 61.96197108 5.22265625 49.09765625 C3.21226032 47.20032301 1.15425701 45.58103499 -1.0625 43.9375 C-3.83870843 41.5855784 -3.97830219 41.25652858 -4.30859375 37.3515625 C-4.06406925 30.01062486 -2.9573017 22.71283228 -2 15.4375 C-1.80677362 13.93691558 -1.61406104 12.4362649 -1.421875 10.93554688 C-0.95383915 7.28958152 -0.47885227 3.64456244 0 0 Z " fill="#020202" transform="translate(341,106)"/>
<path d="M0 0 C57.75 0 115.5 0 175 0 C170.38339383 54.2451225 170.38339383 54.2451225 168.29956055 73.89770508 C167.92869807 77.39551593 167.56447269 80.89397442 167.20117188 84.39257812 C166.95609685 86.73701763 166.71066792 89.08142018 166.46484375 91.42578125 C166.31002785 92.90634758 166.31002785 92.90634758 166.15208435 94.41682434 C164.85606405 106.62193556 163.40702106 118.80581752 162 131 C142.86 131 123.72 131 104 131 C109 126 109 126 110.98780823 124.62742615 C114.67300106 121.93947759 115.86599293 119.77921925 116.64498901 115.24954224 C116.99941414 110.36829067 116.94454199 105.4884353 116.90234375 100.59765625 C116.91173426 98.79160263 116.9241954 96.98556259 116.93959045 95.17955017 C116.97176213 90.44299806 116.96239387 85.70741599 116.94421387 80.9708252 C116.93107383 75.27879803 116.9698092 69.58691336 116.99979401 63.89498138 C117.03948765 55.26278114 117.0135102 46.63301889 117 38 C101.16 38 85.32 38 69 38 C69 47.24 69 56.48 69 66 C47.22 66 25.44 66 3 66 C2.67 57.09 2.34 48.18 2 39 C1.67994617 33.9912743 1.34805877 28.99969342 0.9375 24 C0.75519786 21.75031396 0.576756 19.50031147 0.40234375 17.25 C0.32491943 16.30640625 0.24749512 15.3628125 0.16772461 14.390625 C-0.06928951 9.59928283 0 4.7972008 0 0 Z " fill="#C01030" transform="translate(166,21)"/>
<path d="M0 0 C18.81 0 37.62 0 57 0 C51.6137736 5.3862264 51.6137736 5.3862264 48.24290466 7.32377625 C45.24602436 9.41730178 45.05251785 9.78506713 44.12025452 13.60041809 C44.08249701 15.00630028 44.08267014 16.41352947 44.11352539 17.81958008 C44.10274963 18.59084229 44.09197388 19.36210449 44.08087158 20.15673828 C44.05355433 22.69531728 44.07532542 25.23094446 44.09765625 27.76953125 C44.08826999 29.53360331 44.07581147 31.29766149 44.06040955 33.06169128 C44.02818149 37.69635122 44.03762649 42.33002176 44.05578613 46.96472168 C44.06890645 52.52988466 44.03020713 58.09490003 44.00020599 63.65996552 C43.96046297 72.10719524 43.98649544 80.5519319 44 89 C64.79 89 85.58 89 107 89 C107 78.77 107 68.54 107 58 C111.69137655 57.32316043 116.38287391 56.64728327 121.07470703 55.97363281 C122.6629989 55.74531785 124.25121801 55.51649596 125.83935547 55.28710938 C136.54643156 53.74105912 147.26032396 52.30105397 158 51 C159.33565539 65.8811766 160.32648106 80.76930012 161.125 95.6875 C161.19143707 96.89469696 161.19143707 96.89469696 161.25921631 98.12628174 C161.3880464 100.48372223 161.51129585 102.84139102 161.6328125 105.19921875 C161.67021545 105.87892227 161.70761841 106.55862579 161.74615479 107.25892639 C162.08941819 114.19275472 162 121.02572399 162 128 C104.25 128 46.5 128 -13 128 C-11.85138035 107.3248463 -11.85138035 107.3248463 -10.765625 97.2421875 C-10.5881498 95.54252838 -10.5881498 95.54252838 -10.40708923 93.80853271 C-10.025542 90.16357167 -9.6379164 86.51928819 -9.25 82.875 C-8.98178666 80.32735234 -8.71396983 77.77966291 -8.4465332 75.23193359 C-7.90122354 70.04049741 -7.35377012 64.84929314 -6.80517578 59.65820312 C-6.03254445 52.33077939 -5.27754971 45.00162398 -4.52734375 37.671875 C-4.1885154 34.37239962 -3.84947146 31.07294647 -3.51037598 27.77349854 C-3.29608542 25.68386183 -3.08261763 23.59414058 -2.86999512 21.5043335 C-2.57616334 18.61979384 -2.27874723 15.73564522 -1.98046875 12.8515625 C-1.89530502 12.00640076 -1.8101413 11.16123901 -1.72239685 10.29046631 C-1.35367772 6.75445378 -0.86439615 3.45758462 0 0 Z " fill="#BD0F2E" transform="translate(178,262)"/>
<path d="M0 0 C5.56485625 3.93042295 9.63270864 10.14499098 13.7890625 15.44921875 C16.9722003 19.23334764 16.9722003 19.23334764 21 22 C24.48476118 21.81875099 27.71304029 20.87458233 31.0625 19.9375 C33.0441117 19.43560134 35.02723082 18.93962151 37.01171875 18.44921875 C38.5129126 18.07482666 38.5129126 18.07482666 40.04443359 17.69287109 C44.45815269 16.65816642 48.89235512 15.91407911 53.375 15.25 C54.47533569 15.07778931 54.47533569 15.07778931 55.59790039 14.90209961 C96.37379826 8.999447 139.16781431 12.26770274 179 22 C179.70318359 22.16951172 180.40636719 22.33902344 181.13085938 22.51367188 C184.4290758 23.31093382 187.71960292 24.13228206 191 25 C191.35771484 24.01386719 191.35771484 24.01386719 191.72265625 23.0078125 C193.36647347 19.13705023 195.37404651 15.53521313 197.4375 11.875 C197.83259766 11.15957031 198.22769531 10.44414063 198.63476562 9.70703125 C199.02212891 9.01738281 199.40949219 8.32773437 199.80859375 7.6171875 C200.15720459 6.99440918 200.50581543 6.37163086 200.86499023 5.72998047 C202.09330773 3.85778047 203.27785222 2.43435895 205 1 C210.98031278 0.25432509 215.47597636 1.98286808 220.875 4.25 C221.72562012 4.5991748 222.57624023 4.94834961 223.45263672 5.30810547 C230.77400675 8.36996052 237.96201676 11.71141578 245.125 15.125 C246.1547998 15.61516602 247.18459961 16.10533203 248.24560547 16.61035156 C266.08173896 25.25519499 266.08173896 25.25519499 270 30 C271.06621981 36.62222458 268.29381111 40.85100509 265 46.3125 C264.05909773 47.91076236 263.12142543 49.51093205 262.1875 51.11328125 C261.76855469 51.81235596 261.34960938 52.51143066 260.91796875 53.23168945 C259.84642028 54.96378141 259.84642028 54.96378141 260 57 C262.36509608 58.72144991 264.74103009 60.33915072 267.1875 61.9375 C278.12126573 69.29032753 287.69849484 77.55406551 297.0625 86.8125 C297.69422119 87.43479492 298.32594238 88.05708984 298.97680664 88.69824219 C307.99440899 97.78036903 307.99440899 97.78036903 308.0078125 103.1015625 C306.83197668 106.48322986 305.50863933 107.97347804 302.875 110.375 C300.10545689 112.93371284 297.52315632 115.51928618 295.0859375 118.390625 C289.91863361 124.36815767 284.26709106 129.88192424 278.67382812 135.45654297 C276.73710444 137.38785956 274.80584276 139.32452454 272.875 141.26171875 C271.64094591 142.49511283 270.40658208 143.72819711 269.171875 144.9609375 C268.59685242 145.53798431 268.02182983 146.11503113 267.42938232 146.70956421 C261.30100286 152.8020213 261.30100286 152.8020213 257.125 153.4375 C251.2355901 152.61298261 247.53606667 146.44658045 243.6875 142.1875 C242.80449219 141.21167969 241.92148437 140.23585937 241.01171875 139.23046875 C240.01591797 138.12638672 240.01591797 138.12638672 239 137 C235.60031646 147.19905063 236.84641225 159.18545297 236.86962891 169.81689453 C236.87501261 172.75688778 236.86964592 175.69673 236.86328125 178.63671875 C236.86394168 180.52343783 236.86522213 182.41015682 236.8671875 184.296875 C236.86415115 185.60177887 236.86415115 185.60177887 236.86105347 186.93304443 C236.8793487 191.72054912 237.23562265 196.26041055 238 201 C238.06252492 202.97828849 238.08693365 204.95837451 238.0625 206.9375 C238.05347656 207.89527344 238.04445313 208.85304687 238.03515625 209.83984375 C238.01775391 210.90912109 238.01775391 210.90912109 238 212 C240.69697129 209.38091957 243.25364327 206.75052393 245.6484375 203.8515625 C246.32132813 203.05685547 246.32132813 203.05685547 247.0078125 202.24609375 C247.92767481 201.15539987 248.83121555 200.05075194 249.71875 198.93359375 C251.0859375 197.3515625 251.0859375 197.3515625 254 195 C259.52997849 194.95890498 262.26522972 196.56567601 266.08398438 200.22935486 C266.67501953 200.82526932 267.26605469 201.42118378 267.875 202.03515625 C268.51501953 202.65713394 269.15503906 203.27911163 269.81445312 203.91993713 C271.18255226 205.25134503 272.5447108 206.58888003 273.90136719 207.9319458 C275.98953916 209.98969158 278.10275831 212.01767084 280.2265625 214.03857422 C283.80052283 217.44354972 287.3378033 220.88342857 290.85839844 224.34350586 C292.30706396 225.75996781 293.76370575 227.16831049 295.22753906 228.5690918 C297.3793049 230.63013479 299.50414923 232.71581102 301.625 234.80859375 C302.28306641 235.42850693 302.94113281 236.0484201 303.61914062 236.68711853 C305.32342687 238.39895317 306.76075758 239.92613352 308 242 C307.90083786 252.70472452 298.06058122 260.80940808 291 268 C285.67749663 272.92432915 280.03347042 277.38414755 274.25 281.75 C273.50878906 282.31332031 272.76757812 282.87664062 272.00390625 283.45703125 C268.67787917 285.98290101 265.34224515 288.49563328 262 291 C263.64454331 296.64713551 266.31943717 301.34934876 269.34179688 306.34570312 C271.18811417 309.60607832 271.98345753 311.80213489 272.30078125 315.59765625 C270.31877788 320.78181521 266.74107889 322.41006912 262 325 C261.09008301 325.50337891 260.18016602 326.00675781 259.24267578 326.52539062 C247.10156693 333.03723514 234.62801809 338.82377475 221.8125 343.875 C220.73299072 344.30973633 219.65348145 344.74447266 218.54125977 345.19238281 C212.92641475 347.33111741 208.83911273 348.85963879 203 347 C201.03125 345.65234375 201.03125 345.65234375 199.5 343.9375 C198.92507813 343.3084375 198.35015625 342.679375 197.7578125 342.03125 C197.17773438 341.3609375 196.59765625 340.690625 196 340 C195.39929688 339.3296875 194.79859375 338.659375 194.1796875 337.96875 C189.44546069 332.64018303 189.44546069 332.64018303 187.6953125 330.125 C186.4104063 328.20323185 186.4104063 328.20323185 184 326 C181.54514648 326.16516824 179.39441636 326.49361403 177 327 C176.19336914 327.16910889 175.38673828 327.33821777 174.55566406 327.51245117 C172.69478421 327.90940057 170.83472544 328.31021145 168.9753418 328.71411133 C131.711449 336.65752087 91.66906559 338.31601135 54 332 C52.00798394 331.69419364 50.01579242 331.3895283 48.0234375 331.0859375 C20.46115302 326.73057651 20.46115302 326.73057651 11 322 C10.7628125 322.81984375 10.525625 323.6396875 10.28125 324.484375 C8.75087905 328.68356357 6.7175124 332.38175152 4.5 336.25 C3.89478516 337.32894531 3.89478516 337.32894531 3.27734375 338.4296875 C0.26968344 343.73031656 0.26968344 343.73031656 -2 346 C-7.7828236 346.84269314 -13.15237051 345.7408114 -18.5625 343.6875 C-19.26866455 343.4282373 -19.9748291 343.16897461 -20.70239258 342.90185547 C-60.38806226 327.88062427 -60.38806226 327.88062427 -67.91796875 318.6484375 C-69.34586712 315.15343717 -69.09910318 313.61512249 -68 310 C-66.62692921 307.1788077 -65.05472933 304.49962684 -63.4375 301.8125 C-62.59705135 300.40580067 -61.76215187 298.99576686 -60.93359375 297.58203125 C-60.56290771 296.96561768 -60.19222168 296.3492041 -59.81030273 295.71411133 C-58.78631115 293.86396131 -58.78631115 293.86396131 -59 291 C-61.31423556 289.15317777 -61.31423556 289.15317777 -64.3125 287.375 C-70.60166217 283.33249506 -76.32249123 278.87361372 -82 274 C-82.83273437 273.29101562 -83.66546875 272.58203125 -84.5234375 271.8515625 C-108.5707587 250.8386036 -128.87323953 220.72299145 -131.2878418 188.11254883 C-131.38141496 184.76849593 -131.42247009 181.44027174 -131.39111328 178.09594727 C-131.37503197 176.06653411 -131.39106912 174.03911917 -131.41015625 172.00976562 C-131.43203545 159.40401691 -129.38183161 147.36497208 -124.875 135.5625 C-124.57424561 134.76739014 -124.27349121 133.97228027 -123.96362305 133.15307617 C-111.36077627 100.98071102 -85.98681658 76.22498647 -58 57 C-59.47881725 53.87483453 -60.95811322 50.7498959 -62.4375 47.625 C-62.85837891 46.73554687 -63.27925781 45.84609375 -63.71289062 44.9296875 C-64.11572266 44.07890625 -64.51855469 43.228125 -64.93359375 42.3515625 C-65.30540771 41.56604004 -65.67722168 40.78051758 -66.06030273 39.97119141 C-66.69424858 38.641371 -67.34116624 37.31766752 -68 36 C-68.3125 33.125 -68.3125 33.125 -68 30 C-65.36146696 26.88344995 -62.57571769 25.0082394 -58.984375 23.1171875 C-57.99171631 22.59431152 -56.99905762 22.07143555 -55.97631836 21.53271484 C-54.37929077 20.712146 -54.37929077 20.712146 -52.75 19.875 C-51.64986572 19.30604004 -50.54973145 18.73708008 -49.41625977 18.15087891 C-38.21264987 12.44893486 -26.70568279 7.56857452 -15 3 C-14.23067139 2.69819824 -13.46134277 2.39639648 -12.66870117 2.08544922 C-8.15936776 0.34953937 -4.84206443 -0.88037535 0 0 Z M-40.375 22.25 C-41.41342041 22.74467773 -42.45184082 23.23935547 -43.52172852 23.74902344 C-49.25537582 26.52654302 -54.66730758 29.51275007 -60 33 C-58.15899772 39.28166162 -55.11288628 44.85299733 -52.1015625 50.63085938 C-51.70453125 51.40623047 -51.3075 52.18160156 -50.8984375 52.98046875 C-50.53411621 53.68067139 -50.16979492 54.38087402 -49.79443359 55.10229492 C-49 57 -49 57 -49 60 C-51.3190086 61.74916023 -53.61915737 63.31732718 -56.0625 64.875 C-73.79886342 76.63256918 -89.77923365 91.53967738 -102 109 C-102.42023437 109.5976416 -102.84046875 110.1952832 -103.2734375 110.81103516 C-119.89558787 134.85648678 -127.87589649 163.61280413 -123.0715332 192.72021484 C-122.48133127 195.83969283 -121.76237756 198.91857628 -121 202 C-120.79503906 202.88300781 -120.59007812 203.76601562 -120.37890625 204.67578125 C-115.15664304 224.49443231 -102.73668199 242.17884312 -89 257 C-88.17757812 257.89332031 -87.35515625 258.78664063 -86.5078125 259.70703125 C-75.73865361 270.91754911 -63.00172209 279.6053307 -50 288 C-50.5201795 294.93195729 -54.24847439 300.35452891 -57.58203125 306.27539062 C-58.03191406 307.09587891 -58.48179687 307.91636719 -58.9453125 308.76171875 C-59.36312988 309.50381592 -59.78094727 310.24591309 -60.21142578 311.01049805 C-61.3069973 313.15158419 -61.3069973 313.15158419 -60 316 C-58.35557763 317.25612564 -58.35557763 317.25612564 -56.2578125 318.3125 C-55.45158447 318.74320801 -54.64535645 319.17391602 -53.81469727 319.61767578 C-52.92709717 320.07384277 -52.03949707 320.53000977 -51.125 321 C-50.208396 321.47550293 -49.29179199 321.95100586 -48.34741211 322.44091797 C-40.57470644 326.38057046 -32.62537077 329.82590649 -24.5625 333.125 C-22.8312085 333.83462891 -22.8312085 333.83462891 -21.06494141 334.55859375 C-16.00793526 336.58109791 -11.41798243 338.24554031 -6 339 C-4.58087449 336.50136876 -3.1646616 334.00115719 -1.75 331.5 C-1.35425781 330.80390625 -0.95851563 330.1078125 -0.55078125 329.390625 C4.53915337 321.55179249 4.53915337 321.55179249 7 313 C7.94617188 313.31453125 8.89234375 313.6290625 9.8671875 313.953125 C26.60249274 319.41290039 43.54883703 322.78036574 61 325 C62.30332275 325.17208984 63.60664551 325.34417969 64.94946289 325.52148438 C76.14029051 326.93091245 87.16626669 327.32122831 98.4375 327.25 C99.30141357 327.24723053 100.16532715 327.24446106 101.05541992 327.24160767 C122.39635608 327.16184177 143.43103716 326.25868249 164.29296875 321.47412109 C165.91557555 321.1021104 167.53854494 320.73167779 169.16186523 320.36279297 C170.71041032 320.00782291 172.25700821 319.64419405 173.80102539 319.27001953 C178.26637209 318.2258812 182.40893174 317.33493871 187 318 C189.33867998 319.95242058 191.03320806 321.62846641 192.9375 323.9375 C193.44893555 324.52490967 193.96037109 325.11231934 194.48730469 325.7175293 C195.51830535 326.90402143 196.54139784 328.09743529 197.55615234 329.29785156 C199.57473478 331.67755341 201.66341736 333.99242765 203.75 336.3125 C204.83428581 337.54082654 205.91779383 338.76984082 207 340 C214.73861502 337.88534707 222.06152047 335.07868308 229.4375 331.9375 C230.56534912 331.45724365 231.69319824 330.9769873 232.85522461 330.48217773 C240.03161445 327.38234709 247.10869257 324.13512935 254.0625 320.5625 C254.85906006 320.16216553 255.65562012 319.76183105 256.47631836 319.34936523 C260.32950168 317.46743379 260.32950168 317.46743379 262.85302734 314.18383789 C263.05562288 311.17351057 262.0882825 309.52861706 260.69140625 306.8671875 C260.19189453 305.89652344 259.69238281 304.92585938 259.17773438 303.92578125 C258.64470703 302.91902344 258.11167969 301.91226562 257.5625 300.875 C256.5188356 298.87411356 255.47830372 296.87158904 254.44140625 294.8671875 C253.97420166 293.98144043 253.50699707 293.09569336 253.02563477 292.18310547 C252 290 252 290 252 288 C253.35424805 286.84594727 253.35424805 286.84594727 255.26171875 285.56640625 C255.96216309 285.08800293 256.66260742 284.60959961 257.38427734 284.11669922 C258.14434082 283.60381348 258.9044043 283.09092773 259.6875 282.5625 C267.55086414 277.13502477 274.86016689 271.33847096 282 265 C283.485 263.69869141 283.485 263.69869141 285 262.37109375 C293.31136278 255.40032484 293.31136278 255.40032484 300 247 C299.80740849 243.36929332 297.97962886 241.63013262 295.4375 239.1875 C294.79683594 238.56230469 294.15617187 237.93710937 293.49609375 237.29296875 C292.14676966 236.05344882 290.78990853 234.82106752 289.39501953 233.63305664 C282.56697237 227.80976675 276.31676884 221.42691882 270 215.0625 C268.83226626 213.88973991 267.66429926 212.71721202 266.49609375 211.54492188 C263.66136766 208.69928311 260.82981176 205.85052547 258 203 C257.04786621 203.78463623 256.09573242 204.56927246 255.11474609 205.37768555 C254.31138321 206.03972237 254.31138321 206.03972237 253.49179077 206.71513367 C251.6782471 208.27712295 250.15208621 209.97146967 248.625 211.8125 C238.3352649 223.83236755 238.3352649 223.83236755 232 227 C232.0309375 225.91976562 232.061875 224.83953125 232.09375 223.7265625 C232.09375 219.2914604 231.52995285 215.01595101 230.93237305 210.62719727 C227.67103498 186.09626314 227.48946024 160.51259381 230.75634766 135.96630859 C231.37197937 130.99807428 231.6537876 125.99274727 232 121 C233.88620349 122.6446461 235.76962252 124.29222087 237.6484375 125.9453125 C239.18374446 127.28679333 240.73024542 128.61559938 242.2890625 129.9296875 C247.60826014 134.48116589 251.91096633 139.32005612 256 145 C259.35999018 143.54131246 261.55203106 141.69131052 264.12597656 139.10107422 C264.92650452 138.3003952 265.72703247 137.49971619 266.55181885 136.67477417 C267.40612488 135.81014557 268.26043091 134.94551697 269.140625 134.0546875 C270.46389801 132.72716965 270.46389801 132.72716965 271.81390381 131.37283325 C274.15194543 129.02549869 276.48555874 126.67393215 278.81713867 124.32019043 C281.19996526 121.91686073 283.58850348 119.51922233 285.9765625 117.12109375 C290.65631862 112.41928533 295.33031867 107.71181336 300 103 C290.93205077 84.38191694 268.15077004 70.44735056 251 60 C251.57676975 56.39538742 252.52934024 53.66962515 254.3203125 50.49609375 C254.99900391 49.26149414 254.99900391 49.26149414 255.69140625 48.00195312 C256.65066233 46.28600867 257.61424137 44.57247404 258.58203125 42.86132812 C259.03191406 42.03955078 259.48179687 41.21777344 259.9453125 40.37109375 C260.36312988 39.62786865 260.78094727 38.88464355 261.21142578 38.11889648 C262.16274102 35.56271537 262.09917823 34.48111372 261 32 C258.51698542 30.27602577 256.15515864 28.84962493 253.5 27.4375 C252.7169751 27.01202881 251.9339502 26.58655762 251.12719727 26.14819336 C237.67244729 19.00202126 223.53885828 12.58405209 209 8 C207.41213132 10.66398996 205.83057172 13.33167528 204.25 16 C203.8065625 16.74378906 203.363125 17.48757812 202.90625 18.25390625 C200.05339314 23.07859064 197.45165509 27.95921384 195 33 C190.75111817 32.33553612 186.59597086 31.47750973 182.4140625 30.4765625 C181.16189941 30.17903076 179.90973633 29.88149902 178.61962891 29.57495117 C177.96714172 29.41948822 177.31465454 29.26402527 176.64239502 29.10385132 C137.4012181 19.78951817 96.98788078 16.28887851 56.875 22.25 C55.83924332 22.40349411 55.83924332 22.40349411 54.78256226 22.56008911 C41.669924 24.56000768 28.85307461 27.77552279 16 31 C15.58681519 30.11030518 15.58681519 30.11030518 15.1652832 29.20263672 C14.05705101 27.10783873 12.90806772 25.53616996 11.35546875 23.7578125 C10.84306641 23.16613281 10.33066406 22.57445312 9.80273438 21.96484375 C9.26970703 21.35769531 8.73667969 20.75054687 8.1875 20.125 C7.13893712 18.91960633 6.09075636 17.71388014 5.04296875 16.5078125 C4.5329834 15.92547852 4.02299805 15.34314453 3.49755859 14.74316406 C2.03720837 13.04331069 0.63815283 11.30439854 -0.76171875 9.5546875 C-1.50035156 8.71164063 -2.23898437 7.86859375 -3 7 C-14.62473674 7 -30.09763216 17.33496984 -40.375 22.25 Z " fill="#0B2243" transform="translate(697,28)"/>
<path d="M0 0 C20.46 0 40.92 0 62 0 C62 12.87 62 25.74 62 39 C93.02 39 124.04 39 156 39 C156.79837396 42.19349584 157.19923743 44.76228857 157.38891602 48.00195312 C157.44890274 48.99819702 157.50888947 49.99444092 157.57069397 51.02087402 C157.63115402 52.0967981 157.69161407 53.17272217 157.75390625 54.28125 C157.81907944 55.40454712 157.88425262 56.52784424 157.95140076 57.68518066 C158.08862548 60.07239758 158.22382918 62.45973139 158.35717773 64.84716797 C158.55862746 68.43110468 158.77007967 72.01435062 158.98242188 75.59765625 C159.31453761 81.32427689 159.60529305 87.05154307 159.85772705 92.78222656 C159.95069023 94.88476575 160.05045479 96.98701821 160.15789795 99.08886719 C160.29271963 101.88215515 160.38603772 104.67339559 160.46484375 107.46875 C160.50968399 108.28323608 160.55452423 109.09772217 160.60072327 109.93688965 C160.63647461 112.20117187 160.63647461 112.20117187 160 116 C156.11667658 119.35673117 151.65475301 121.21699919 146.875 123 C146.19920898 123.25346191 145.52341797 123.50692383 144.82714844 123.76806641 C135.17355258 127.20893048 124.28523982 130 114 130 C114 115.15 114 100.3 114 85 C78.36 85 42.72 85 6 85 C4.125 58 4.125 58 3.54736328 49.64453125 C2.65843843 36.87402992 1.71977202 24.11150536 0.60305786 11.35864258 C0.52377045 10.4436499 0.44448303 9.52865723 0.36279297 8.5859375 C0.29252899 7.7923584 0.22226501 6.9987793 0.14987183 6.18115234 C0.00858977 4.12501086 0 2.06098967 0 0 Z " fill="#BE0E2E" transform="translate(172,140)"/>
<path d="M0 0 C3.63 0 7.26 0 11 0 C11.08564209 1.35158203 11.17128418 2.70316406 11.25952148 4.09570312 C11.57949674 9.13524958 11.90267996 14.17458617 12.22680664 19.21386719 C12.36634699 21.39024397 12.50503044 23.56667588 12.64282227 25.74316406 C12.84162908 28.88101023 13.04357 32.0186418 13.24609375 35.15625 C13.3065538 36.12115356 13.36701385 37.08605713 13.42930603 38.0802002 C13.48929276 39.00055054 13.54927948 39.92090088 13.61108398 40.86914062 C13.66215805 41.66856079 13.71323212 42.46798096 13.76585388 43.29162598 C14.07533131 46.87135912 14.55433255 50.43466044 15 54 C15.66 67.2 16.32 80.4 17 94 C52.31 94 87.62 94 124 94 C124 106.21 124 118.42 124 131 C111.79 131 99.58 131 87 131 C91.2589343 126.7410657 95.39884057 123.25407621 100.1875 119.6875 C101.27321289 118.86282227 101.27321289 118.86282227 102.38085938 118.02148438 C103.07373047 117.50263672 103.76660156 116.98378906 104.48046875 116.44921875 C105.10848389 115.97830811 105.73649902 115.50739746 106.38354492 115.0222168 C108 114 108 114 110 114 C110 113.34 110 112.68 110 112 C78.98 112 47.96 112 16 112 C16 115.96 16 119.92 16 124 C15.67 126.31 15.34 128.62 15 131 C10.05 131 5.1 131 0 131 C-0.12147589 124.22902094 0.3394707 117.69025776 1.09375 110.96484375 C1.32180985 108.83400526 1.54966794 106.70314518 1.77734375 104.57226562 C2.13635735 101.26372327 2.49800871 97.95550851 2.86376953 94.64770508 C4.8754038 76.35825475 5.4367682 58.9425035 3.625 40.625 C3.4873437 39.17477358 3.35022319 37.72449621 3.21362305 36.27416992 C2.35968496 27.29181693 1.42175386 18.32026955 0.33203125 9.36328125 C0.02120075 6.21475111 -0.06312428 3.16106984 0 0 Z " fill="#040403" transform="translate(153,140)"/>
<path d="M0 0 C0.95503418 0.78898682 1.91006836 1.57797363 2.89404297 2.39086914 C3.43124969 2.83467422 3.96845642 3.27847931 4.52194214 3.73573303 C6.2213055 5.18929518 7.68174333 6.73004061 9.125 8.4375 C9.71023438 9.12199219 10.29546875 9.80648437 10.8984375 10.51171875 C11.59195313 11.33285156 12.28546875 12.15398437 13 13 C14.91315651 15.25300293 16.83064993 17.50227184 18.75 19.75 C19.52138306 20.65443848 19.52138306 20.65443848 20.30834961 21.57714844 C23.6897023 25.52354918 27.15038763 29.38051258 30.6875 33.1875 C34.05583447 36.81283208 37.2792202 40.51232393 40.375 44.375 C44.98405054 50.10315454 49.97306712 55.42723191 55 60.78515625 C57.80266604 63.77506938 60.51176461 66.83364695 63.1875 69.9375 C66.06858616 73.21597735 69.03788137 76.41445751 72.00634766 79.61376953 C81 89.35172414 81 89.35172414 81 92 C75.06332572 92.05019954 69.12678043 92.0860893 63.18994141 92.10986328 C61.17885175 92.11979538 59.16777603 92.13334559 57.15673828 92.15087891 C39.50478367 92.3006958 22.73807821 91.06105181 5.4375 87.4375 C4.33470703 87.21642578 3.23191406 86.99535156 2.09570312 86.76757812 C-5.85867139 85.14132861 -5.85867139 85.14132861 -7 84 C-6.94029514 77.11901513 -5.6064136 70.22488359 -4.5625 63.4375 C-4.03619387 59.95913573 -3.51636957 56.47985213 -3 53 C-2.89510254 52.30648437 -2.79020508 51.61296875 -2.68212891 50.8984375 C-0.21525239 34.07844414 -0.34809049 16.96587386 0 0 Z " fill="#FAFCFC" transform="translate(739,193)"/>
<path d="M0 0 C29.90029246 -0.59277725 58.88882727 1.57966939 88 9 C87.91959473 9.58265625 87.83918945 10.1653125 87.75634766 10.765625 C86.82727322 17.50903544 85.91039787 24.25404424 85 31 C84.89365234 31.7822998 84.78730469 32.56459961 84.67773438 33.37060547 C84.40466305 35.39216922 84.13961333 37.41481175 83.875 39.4375 C83.72804688 40.54996094 83.58109375 41.66242188 83.4296875 42.80859375 C82.10207038 54.63379201 81.78239897 66.55185903 81.4375 78.4375 C81.39412695 79.86263774 81.35050811 81.28776802 81.30664062 82.71289062 C81.20161157 86.14184633 81.09984585 89.57088897 81 93 C72.64966036 84.69022951 64.91687667 75.78298085 57.28515625 66.8125 C51.94274332 60.53888089 46.53720339 54.35902879 40.92797852 48.32250977 C38.05031436 45.20473841 35.33628268 42.00092187 32.6875 38.6875 C27.83677448 32.65686827 22.5423004 27.08131885 17.23828125 21.453125 C14.26061531 18.29079101 11.35938914 15.07443454 8.53125 11.77734375 C7.38123371 10.44250341 6.21107095 9.1249775 5.03125 7.81640625 C4.05671875 6.73166016 4.05671875 6.73166016 3.0625 5.625 C2.18271484 4.65433594 2.18271484 4.65433594 1.28515625 3.6640625 C0 2 0 2 0 0 Z " fill="#FAFBFC" transform="translate(777,119)"/>
<path d="M0 0 C0.48288294 3.60367863 0.96060024 7.2080251 1.4375 10.8125 C1.57220703 11.81732422 1.70691406 12.82214844 1.84570312 13.85742188 C2.24722643 16.90312301 2.63009063 19.95030278 3 23 C3.10223877 23.83877686 3.20447754 24.67755371 3.30981445 25.54174805 C4.28764551 34.72837739 4.28282486 43.95863879 4.3125 53.1875 C4.31644775 54.07919891 4.32039551 54.97089783 4.32446289 55.88961792 C4.35997521 73.17504623 2.73840162 89.94507451 0 107 C-11.07783113 104.59431918 -20.10714102 92.10825209 -26 83 C-33.79670952 69.3147901 -35.73591672 53.39032142 -31.5625 38.0625 C-27.64080749 27.42576908 -12.28141598 0 0 0 Z " fill="#0B2345" transform="translate(668,149)"/>
<path d="M0 0 C3.54562835 2.76931467 6.3488449 5.45327713 9.125 9 C12.44711906 13.14988959 15.87733179 17.11613628 19.5 21 C22.89374468 24.64439913 26.14649771 28.35312118 29.25 32.25 C33.71572956 37.80806628 38.58344929 42.92879728 43.48901367 48.09448242 C47.7628329 52.61727241 51.74457547 57.27888323 55.62109375 62.1484375 C59.78975967 67.14536053 64.30772074 71.8205485 68.76953125 76.5546875 C71.7128424 79.68043182 74.56830219 82.86873161 77.37109375 86.12109375 C79.34484552 88.39777145 81.3579887 90.63656722 83.375 92.875 C84.13425781 93.71804688 84.89351562 94.56109375 85.67578125 95.4296875 C87.21021609 97.12659191 88.7491988 98.81939631 90.29296875 100.5078125 C105 116.65770224 105 116.65770224 105 120 C68.08878414 124.13405618 28.60513772 123.86837924 -7 112 C-5.99761296 105.4633637 -4.99049717 98.92756149 -3.96484375 92.39453125 C-3.79533203 91.30849609 -3.62582031 90.22246094 -3.45117188 89.10351562 C-3.10684531 86.89746903 -2.76046885 84.69174147 -2.41210938 82.48632812 C-2.24388672 81.40416016 -2.07566406 80.32199219 -1.90234375 79.20703125 C-1.75273193 78.2528833 -1.60312012 77.29873535 -1.44897461 76.31567383 C-0.17711122 66.92297307 0.13529368 57.72015047 0.09765625 48.2421875 C0.09578678 46.84400483 0.09436538 45.4458215 0.09336853 44.04763794 C0.08958498 40.40138886 0.0797912 36.75518083 0.06866455 33.10894775 C0.05836 29.37472081 0.0538517 25.64048712 0.04882812 21.90625 C0.03816439 14.60414814 0.02113919 7.30207986 0 0 Z M9 22 C8.9906543 22.88220215 8.98130859 23.7644043 8.97167969 24.67333984 C8.74738058 41.73106693 8.12550627 58.61745509 6.0625 75.5625 C5.97713989 76.27098083 5.89177979 76.97946167 5.80383301 77.70941162 C4.93478242 84.82116301 3.96256606 91.87629679 2.36499023 98.86694336 C1.95276132 101.27606977 1.94039476 103.56046189 2 106 C8.67866773 108.47219682 15.29710284 109.95654611 22.3125 111.125 C23.26833984 111.29386719 24.22417969 111.46273437 25.20898438 111.63671875 C39.729856 114.11708283 54.06410848 114.12488796 68.75 114.0625 C70.81510308 114.05747502 72.88020735 114.05291388 74.9453125 114.04882812 C79.9635713 114.03790143 84.98177235 114.02069175 90 114 C88.19973776 110.13868746 85.71906409 107.32023185 82.8125 104.25 C81.8092049 103.17382081 80.8065997 102.09699802 79.8046875 101.01953125 C79.31967773 100.49955566 78.83466797 99.97958008 78.33496094 99.44384766 C76.66625522 97.63903317 75.04596879 95.79608953 73.4375 93.9375 C70.72221962 90.80099473 67.93295794 87.741316 65.125 84.6875 C61.81663086 81.06476095 58.63987642 77.38307109 55.5625 73.5625 C51.42588603 68.43749154 47.03680784 63.60436845 42.5625 58.77734375 C39.90133655 55.89306447 37.31300992 52.95662867 34.7421875 49.9921875 C32.68499601 47.63979365 30.59403085 45.31965034 28.5 43 C23.95447129 37.96139699 19.46896351 32.87387353 15.046875 27.7265625 C14.41265625 26.99179688 13.7784375 26.25703125 13.125 25.5 C12.55007813 24.8296875 11.97515625 24.159375 11.3828125 23.46875 C10.92648437 22.9840625 10.47015625 22.499375 10 22 C9.67 22 9.34 22 9 22 Z " fill="#0C2345" transform="translate(730,171)"/>
<path d="M0 0 C1.19345032 0.00090637 1.19345032 0.00090637 2.41101074 0.00183105 C14.52752709 0.02676842 26.43755891 0.38043877 38.4375 2.1875 C39.3847998 2.32704102 40.33209961 2.46658203 41.30810547 2.61035156 C54.16737458 4.54139437 66.83852475 6.9692835 79.4375 10.1875 C78.9305564 15.79993214 78.30778692 21.36245249 77.40246582 26.92495728 C73.97347134 48.33173194 73.15289968 69.38017104 73.3001709 91.04827881 C73.32106544 94.46184711 73.32985528 97.87544795 73.33984375 101.2890625 C73.36159363 107.9219556 73.39482642 114.55471018 73.4375 121.1875 C66.25452846 114.03302041 59.35275983 106.65334237 53 98.75 C48.64008694 93.33337552 43.96274121 88.26811704 39.22265625 83.1875 C36.46083659 80.2253076 33.78447566 77.1972866 31.13671875 74.1328125 C29.14343572 71.8508471 27.10256973 69.61521426 25.0625 67.375 C22.02776816 64.01948275 19.1333109 60.59911818 16.3125 57.0625 C11.78504877 51.45898201 6.89399907 46.23809067 1.92919922 41.02099609 C-5.0049498 33.72682238 -11.52582442 26.09003317 -18.04980469 18.43041992 C-21.680904 14.17989108 -25.40334761 10.02944452 -29.234375 5.95703125 C-30.5625 4.1875 -30.5625 4.1875 -30.5625 1.1875 C-20.36107781 0.21535 -10.23688373 -0.01441739 0 0 Z M-16.5625 7.1875 C-14.76223587 11.04881659 -12.28155467 13.86725066 -9.375 16.9375 C-8.37301284 18.01238262 -7.37170995 19.08790352 -6.37109375 20.1640625 C-5.88624512 20.68387695 -5.40139648 21.20369141 -4.90185547 21.73925781 C-2.64435029 24.18029331 -0.47320709 26.69388586 1.703125 29.20703125 C3.71014538 31.49883155 5.76152851 33.74746752 7.8125 36 C11.01402433 39.53910002 14.06896063 43.15853106 17.0625 46.875 C19.56723231 49.97341453 22.0714111 52.92046947 24.9375 55.6875 C27.74275702 58.39646674 30.18379532 61.27085539 32.625 64.3125 C36.07512794 68.60311907 39.67534992 72.67402499 43.4375 76.6875 C48.71105912 82.32092358 53.61899884 88.15698321 58.4375 94.1875 C60.07728281 96.21658377 61.73063082 98.21393251 63.4375 100.1875 C63.7675 100.1875 64.0975 100.1875 64.4375 100.1875 C64.45731934 99.38981201 64.47713867 98.59212402 64.49755859 97.77026367 C65.16389869 72.02413404 66.04718208 46.54314111 71.10205078 21.2109375 C71.51927481 19.0360749 71.51927481 19.0360749 71.4375 16.1875 C56.52755556 12.70686044 41.66772929 9.83320537 26.4375 8.1875 C25.08132568 8.04066772 25.08132568 8.04066772 23.69775391 7.89086914 C15.19196417 7.07364057 6.72085324 7.07242296 -1.8125 7.125 C-3.25130051 7.13003077 -4.69010274 7.13459086 -6.12890625 7.13867188 C-9.60680751 7.14953936 -13.08464217 7.16671472 -16.5625 7.1875 Z " fill="#092143" transform="translate(793.5625,111.8125)"/>
<path d="M0 0 C8.58 0 17.16 0 26 0 C20.41939121 6.69673055 20.41939121 6.69673055 17.125 9.4375 C13.13327666 12.76950337 9.74265232 16.25734768 6 20 C48.57 20.495 48.57 20.495 92 21 C92.33 19.68 92.66 18.36 93 17 C103.58667953 24.99402332 108.74029024 35.86143556 111.5859375 48.62890625 C113.13916815 61.27454822 113.63707434 75.9992516 109 88 C108.63648438 88.94746094 108.27296875 89.89492187 107.8984375 90.87109375 C105.39809541 96.81545542 102.3467844 102.19927926 98 107 C97.67 107 97.34 107 97 107 C95.43714291 91.27167222 94.48221125 75.53787685 93.69775391 59.75537109 C93.63886238 58.5738018 93.63886238 58.5738018 93.57878113 57.36836243 C93.50702097 55.91854203 93.43632362 54.46866825 93.36714172 53.01872253 C92.99126053 45.33928215 92.4797823 37.67651679 92 30 C61.64 30 31.28 30 0 30 C0 20.1 0 10.2 0 0 Z " fill="#080808" transform="translate(244,140)"/>
<path d="M0 0 C5.88705699 9.5337742 3.1974401 27.67470119 3.1875 38.6875 C3.1882251 39.51340637 3.1889502 40.33931274 3.18969727 41.19024658 C3.18846864 53.88782895 2.69203503 66.40038204 1 79 C-8.94423743 70.72985332 -16.60463315 61.12661031 -19 48 C-20.28755062 30.8020025 -15.68424023 18.46506988 -5 5 C-3.37935233 3.27494086 -1.71046368 1.63819057 0 0 Z " fill="#F8FAFB" transform="translate(661,164)"/>
<path d="M0 0 C20.46 0 40.92 0 62 0 C62 12.87 62 25.74 62 39 C61.67 39 61.34 39 61 39 C61 26.79 61 14.58 61 2 C59.02 2.33 57.04 2.66 55 3 C53.21382939 3.08082039 51.42519965 3.11797313 49.63720703 3.11352539 C48.61660187 3.11344986 47.5959967 3.11337433 46.54446411 3.11329651 C45.45986908 3.10813522 44.37527405 3.10297394 43.2578125 3.09765625 C42.13430389 3.0962413 41.01079529 3.09482635 39.85324097 3.09336853 C36.27713317 3.08778664 32.70108877 3.07523741 29.125 3.0625 C26.69531341 3.05748266 24.26562583 3.05292016 21.8359375 3.04882812 C15.89060349 3.03782314 9.94530628 3.02110301 4 3 C3.97077354 6.37498158 3.95312532 9.74993021 3.9375 13.125 C3.92912109 14.07632813 3.92074219 15.02765625 3.91210938 16.0078125 C3.89543945 20.80875212 4.08517701 25.27066079 5 30 C5.12601277 31.78577634 5.21993138 33.57411485 5.28125 35.36328125 C5.31863281 36.33201172 5.35601562 37.30074219 5.39453125 38.29882812 C5.46552645 40.32745018 5.53582595 42.35609669 5.60546875 44.38476562 C5.66154297 45.82819336 5.66154297 45.82819336 5.71875 47.30078125 C5.74904297 48.17903564 5.77933594 49.05729004 5.81054688 49.9621582 C5.78062099 51.99349265 5.78062099 51.99349265 7 53 C7.33 62.9 7.66 72.8 8 83 C42.98 83 77.96 83 114 83 C114 83.66 114 84.32 114 85 C78.36 85 42.72 85 6 85 C4.125 58 4.125 58 3.54736328 49.64453125 C2.65843843 36.87402992 1.71977202 24.11150536 0.60305786 11.35864258 C0.52377045 10.4436499 0.44448303 9.52865723 0.36279297 8.5859375 C0.29252899 7.7923584 0.22226501 6.9987793 0.14987183 6.18115234 C0.00858977 4.12501086 0 2.06098967 0 0 Z " fill="#A3223A" transform="translate(172,140)"/>
<path d="M0 0 C0.66 0 1.32 0 2 0 C2.391875 1.19625 2.78375 2.3925 3.1875 3.625 C5.49810576 9.75407161 8.99330848 14.07366311 15 17 C17.19130534 17.69579454 17.19130534 17.69579454 19 18 C19 18.66 19 19.32 19 20 C18.41992188 20.20753906 17.83984375 20.41507812 17.2421875 20.62890625 C11.33452004 22.9588279 7.43197476 25.59027707 4 31 C2.60794936 34.24618446 2.60794936 34.24618446 2 37 C1.34 37 0.68 37 0 37 C-0.21914063 36.40832031 -0.43828125 35.81664062 -0.6640625 35.20703125 C-3.15699052 28.9949789 -5.78766478 24.87806281 -12.1640625 22.03515625 C-14.0877337 21.29763567 -16.04216793 20.64135878 -18 20 C-18 19.34 -18 18.68 -18 18 C-16.80375 17.608125 -15.6075 17.21625 -14.375 16.8125 C-9.10556279 14.78292878 -5.27977851 12.59135277 -2.7421875 7.453125 C-1.74670813 4.98879145 -0.83297262 2.52341704 0 0 Z " fill="#1E8BF3" transform="translate(55,317)"/>
<path d="M0 0 C57.75 0 115.5 0 175 0 C174.67 4.95 174.34 9.9 174 15 C173.67 15 173.34 15 173 15 C173 10.71 173 6.42 173 2 C115.91 2.33 58.82 2.66 0 3 C0 2.01 0 1.02 0 0 Z " fill="#B33F54" transform="translate(166,21)"/>
<path d="M0 0 C20.46 0 40.92 0 62 0 C62 12.87 62 25.74 62 39 C61.67 39 61.34 39 61 39 C61 26.79 61 14.58 61 2 C59.02 2.33 57.04 2.66 55 3 C53.21382939 3.08082039 51.42519965 3.11797313 49.63720703 3.11352539 C48.61660187 3.11344986 47.5959967 3.11337433 46.54446411 3.11329651 C45.45986908 3.10813522 44.37527405 3.10297394 43.2578125 3.09765625 C42.13430389 3.0962413 41.01079529 3.09482635 39.85324097 3.09336853 C36.27713317 3.08778664 32.70108877 3.07523741 29.125 3.0625 C26.69531341 3.05748266 24.26562583 3.05292016 21.8359375 3.04882812 C15.89060349 3.03782314 9.94530628 3.02110301 4 3 C3.97077354 6.37498158 3.95312532 9.74993021 3.9375 13.125 C3.92912109 14.07632813 3.92074219 15.02765625 3.91210938 16.0078125 C3.8954185 20.81478384 4.12258866 25.26104033 5 30 C5.07733849 32.08996873 5.10800958 34.18206395 5.09765625 36.2734375 C5.09443359 37.42714844 5.09121094 38.58085937 5.08789062 39.76953125 C5.07951172 40.95933594 5.07113281 42.14914063 5.0625 43.375 C5.05798828 44.58800781 5.05347656 45.80101562 5.04882812 47.05078125 C5.03708354 50.03390507 5.0206584 53.01692679 5 56 C4.67 56 4.34 56 4 56 C3.42818887 48.66780929 2.85876827 41.33543576 2.29101562 34.00292969 C2.09755721 31.50809516 1.90354994 29.01330312 1.70898438 26.51855469 C1.42954796 22.93435499 1.15208044 19.3500075 0.875 15.765625 C0.78750488 14.64883362 0.70000977 13.53204224 0.60986328 12.38140869 C0.52978027 11.34063171 0.44969727 10.29985474 0.3671875 9.22753906 C0.29612793 8.31264709 0.22506836 7.39775513 0.15185547 6.45513916 C0.01898463 4.30693604 0 2.15230836 0 0 Z " fill="#B12A40" transform="translate(172,140)"/>
<path d="M0 0 C35.64 0 71.28 0 108 0 C108 14.85 108 29.7 108 45 C107.67 45 107.34 45 107 45 C106.67 30.81 106.34 16.62 106 2 C53.53 1.505 53.53 1.505 0 1 C0 0.67 0 0.34 0 0 Z " fill="#FAD8E2" transform="translate(178,225)"/>
<path d="M0 0 C0.33 0 0.66 0 1 0 C1 6.27 1 12.54 1 19 C-18.14 19 -37.28 19 -57 19 C-55.35 17.35 -53.7 15.7 -52 14 C-51.01 14 -50.02 14 -49 14 C-49.99 15.485 -49.99 15.485 -51 17 C-50.43259094 16.98525131 -49.86518188 16.97050262 -49.28057861 16.95530701 C-43.376005 16.80290304 -37.47127914 16.65814217 -31.56640625 16.51782227 C-29.3625818 16.46444636 -27.15880368 16.40912049 -24.95507812 16.35180664 C-21.78786203 16.26977289 -18.62054565 16.19474849 -15.453125 16.12109375 C-14.46757629 16.09405869 -13.48202759 16.06702362 -12.46661377 16.03916931 C-11.5459613 16.01907303 -10.62530884 15.99897675 -9.67675781 15.97827148 C-8.46430389 15.94829323 -8.46430389 15.94829323 -7.22735596 15.91770935 C-5 16 -5 16 -1 17 C-0.67 11.39 -0.34 5.78 0 0 Z " fill="#B1283E" transform="translate(327,133)"/>
<path d="M0 0 C0.66 0 1.32 0 2 0 C2 0.99 2 1.98 2 3 C2.99 3 3.98 3 5 3 C9.53574091 9.23664375 9.44701413 14.43801103 9 22 C8.34 22 7.68 22 7 22 C6.78085937 21.40832031 6.56171875 20.81664062 6.3359375 20.20703125 C3.84300948 13.9949789 1.21233522 9.87806281 -5.1640625 7.03515625 C-7.0877337 6.29763567 -9.04216793 5.64135878 -11 5 C-11 4.34 -11 3.68 -11 3 C-5.555 2.01 -5.555 2.01 0 1 C0 0.67 0 0.34 0 0 Z " fill="#1187FA" transform="translate(48,332)"/>
<path d="M0 0 C0.66 0 1.32 0 2 0 C1.67 0.99 1.34 1.98 1 3 C0.88070613 5.44743986 0.81481292 7.8686787 0.79467773 10.31713867 C0.78477814 11.05884811 0.77487854 11.80055756 0.76467896 12.56474304 C0.73309743 15.01578583 0.70831979 17.466848 0.68359375 19.91796875 C0.66302133 21.61762495 0.64202478 23.31727607 0.62062073 25.016922 C0.5654298 29.49014163 0.51600738 33.96340721 0.46777344 38.43670654 C0.40870391 43.80405452 0.34249231 49.17131854 0.27747345 54.53859711 C0.17950139 62.69234679 0.09061975 70.84615035 0 79 C20.46 79 40.92 79 62 79 C62 79.33 62 79.66 62 80 C41.21 80 20.42 80 -1 80 C-1.04010881 60.32440075 -1.04010881 60.32440075 -1.04882812 51.96679688 C-1.05481649 46.25381548 -1.06191662 40.54085004 -1.07543945 34.82788086 C-1.0862686 30.22433738 -1.09227689 25.62081101 -1.09487724 21.01725578 C-1.09673144 19.25690377 -1.10035196 17.49655274 -1.10573006 15.73620796 C-1.11294086 13.27927723 -1.11399093 10.82241805 -1.11352539 8.36547852 C-1.11712067 7.63036545 -1.12071594 6.89525238 -1.12442017 6.13786316 C-1.11405216 1.11405216 -1.11405216 1.11405216 0 0 Z " fill="#F9BDC8" transform="translate(223,271)"/>
<path d="M0 0 C0.66 0 1.32 0 2 0 C2.5878125 1.794375 2.5878125 1.794375 3.1875 3.625 C5.49810576 9.75407161 8.99330848 14.07366311 15 17 C17.19130534 17.69579454 17.19130534 17.69579454 19 18 C19 18.66 19 19.32 19 20 C15.7 21.32 12.4 22.64 9 24 C8.67 23.01 8.34 22.02 8 21 C7.01 20.34 6.02 19.68 5 19 C4.67 17.989375 4.34 16.97875 4 15.9375 C3.67 14.968125 3.34 13.99875 3 13 C2.01 12.67 1.02 12.34 0 12 C-1.875 10.4375 -1.875 10.4375 -3 8 C-2.33561466 5.17501195 -1.23903686 2.6178625 0 0 Z " fill="#718EFB" transform="translate(55,317)"/>
<path d="M0 0 C4.57226831 0.12357482 6.67989917 2.25409915 9.70507812 5.35351562 C10.23552734 5.91748047 10.76597656 6.48144531 11.3125 7.0625 C12.13717773 7.91424805 12.13717773 7.91424805 12.97851562 8.78320312 C14.32827365 10.17990925 15.66541525 11.58878837 17 13 C16 15 16 15 12.9375 16.125 C11.968125 16.41375 10.99875 16.7025 10 17 C7.96339574 15.09797311 5.94668664 13.18061509 3.9375 11.25 C3.06641602 10.44175781 3.06641602 10.44175781 2.17773438 9.6171875 C0.52734375 8.015625 0.52734375 8.015625 -2 5 C-1.72165504 2.88311974 -1.52934789 1.52934789 0 0 Z " fill="#051D3E" transform="translate(983,108)"/>
<path d="M0 0 C3.87955316 1.36502796 5.1843802 2.77013311 7.375 6.1875 C6.715 7.8375 6.055 9.4875 5.375 11.1875 C4.776875 11.0225 4.17875 10.8575 3.5625 10.6875 C1.26155664 10.0760876 1.26155664 10.0760876 -1.625 10.1875 C-4.29898476 12.12647879 -4.29898476 12.12647879 -6.625 14.1875 C-7.285 13.1975 -7.945 12.2075 -8.625 11.1875 C-8.955 11.1875 -9.285 11.1875 -9.625 11.1875 C-10.09758468 8.50952014 -10.01717563 6.80036228 -8.53515625 4.484375 C-5.70512157 1.27149743 -4.40110055 0.22764313 0 0 Z " fill="#061B3B" transform="translate(954.625,222.8125)"/>
<path d="M0 0 C1.9375 0.375 1.9375 0.375 4 1 C4.33 1.66 4.66 2.32 5 3 C6.32 3 7.64 3 9 3 C11.76166816 4.9477619 13.97468152 7.29957536 16 10 C16.4375 12.9375 16.4375 12.9375 16 15 C15.2575 15.12375 14.515 15.2475 13.75 15.375 C11.19858515 15.95486701 9.2732427 16.73708739 7 18 C7 17.01 7 16.02 7 15 C6.37008175 10.46458857 3.71683812 8.66681576 0.3984375 5.78125 C-0.06304688 5.1934375 -0.52453125 4.605625 -1 4 C-0.7109375 1.78125 -0.7109375 1.78125 0 0 Z " fill="#071B3A" transform="translate(989,260)"/>
<path d="M0 0 C0.99 0.99 1.98 1.98 3 3 C2.01 3.495 2.01 3.495 1 4 C1.26683594 4.55171875 1.53367187 5.1034375 1.80859375 5.671875 C2 8 2 8 -0.08984375 10.578125 C-1.02957031 11.45984375 -1.96929688 12.3415625 -2.9375 13.25 C-3.87464844 14.14203125 -4.81179688 15.0340625 -5.77734375 15.953125 C-6.51082031 16.62859375 -7.24429688 17.3040625 -8 18 C-10.475 17.01 -10.475 17.01 -13 16 C-13.66 16.99 -14.32 17.98 -15 19 C-15.99 18.67 -16.98 18.34 -18 18 C-12 12 -6 6 0 0 Z " fill="#091D3E" transform="translate(982,147)"/>
<path d="M0 0 C2.35620117 0.42578125 2.35620117 0.42578125 5.35620117 2.42578125 C3.94775399 5.6410243 2.25275332 7.74761993 -0.26879883 10.17578125 C-0.90043945 10.789375 -1.53208008 11.40296875 -2.18286133 12.03515625 C-2.90602539 12.72351563 -2.90602539 12.72351563 -3.64379883 13.42578125 C-4.30379883 13.09578125 -4.96379883 12.76578125 -5.64379883 12.42578125 C-5.31379883 11.43578125 -4.98379883 10.44578125 -4.64379883 9.42578125 C-5.30379883 8.76578125 -5.96379883 8.10578125 -6.64379883 7.42578125 C-11.92379883 12.70578125 -17.20379883 17.98578125 -22.64379883 23.42578125 C-23.30379883 23.09578125 -23.96379883 22.76578125 -24.64379883 22.42578125 C-21.6183368 19.27659012 -18.5766764 16.14425668 -15.51904297 13.02636719 C-14.48157273 11.96377464 -13.448637 10.89673484 -12.42041016 9.82519531 C-10.94021899 8.28425269 -9.44437266 6.76012246 -7.94458008 5.23828125 C-7.04908447 4.31660156 -6.15358887 3.39492187 -5.23095703 2.4453125 C-2.64379883 0.42578125 -2.64379883 0.42578125 0 0 Z " fill="#0F2A4E" transform="translate(988.643798828125,140.57421875)"/>
<path d="M0 0 C0.33 0 0.66 0 1 0 C2.31858979 19.02135913 3.36057419 37.92007813 3 57 C2.67 57 2.34 57 2 57 C0.68845688 49.40397945 0.63554943 41.76253073 0.39453125 34.07226562 C0.35714844 32.99525391 0.31976563 31.91824219 0.28125 30.80859375 C0.25095703 29.83720459 0.22066406 28.86581543 0.18945312 27.86499023 C-0.0094009 24.8578356 -0.48684771 21.96785841 -1 19 C-1.0893418 16.83477516 -1.13015967 14.66706113 -1.125 12.5 C-1.12757813 11.4171875 -1.13015625 10.334375 -1.1328125 9.21875 C-1.00272728 6.06609647 -0.5876874 3.09701934 0 0 Z " fill="#AE2C44" transform="translate(328,183)"/>
<path d="M0 0 C0.33 0 0.66 0 1 0 C1.33 11.88 1.66 23.76 2 36 C5.0549278 37.5274639 8.2763314 37.23991832 11.6328125 37.31640625 C12.76056595 37.3475779 12.76056595 37.3475779 13.91110229 37.37937927 C16.31564085 37.44482705 18.72028967 37.50373738 21.125 37.5625 C22.75391771 37.60568977 24.38282422 37.64930421 26.01171875 37.69335938 C30.00769915 37.80050351 34.00379059 37.90178433 38 38 C38 38.33 38 38.66 38 39 C25.46 39 12.92 39 0 39 C0 26.13 0 13.26 0 0 Z " fill="#F5D0D6" transform="translate(234,140)"/>
<path d="M0 0 C18.81 0 37.62 0 57 0 C56.34 0.99 55.68 1.98 55 3 C54.34 3 53.68 3 53 3 C53 2.34 53 1.68 53 1 C35.84 1 18.68 1 1 1 C1 4.63 1 8.26 1 12 C0.67 12 0.34 12 0 12 C0 8.04 0 4.08 0 0 Z " fill="#99122B" transform="translate(178,262)"/>
<path d="M0 0 C0.598125 0.226875 1.19625 0.45375 1.8125 0.6875 C2.69117729 4.42187848 2.90162219 7.85524573 2.8125 11.6875 C2.1525 11.6875 1.4925 11.6875 0.8125 11.6875 C0.4825 12.6775 0.1525 13.6675 -0.1875 14.6875 C-1.02864171 13.25455502 -1.86015687 11.81595595 -2.6875 10.375 C-3.1515625 9.57449219 -3.615625 8.77398437 -4.09375 7.94921875 C-5.1875 5.6875 -5.1875 5.6875 -5.1875 2.6875 C-3.50238638 0.32834093 -2.94924297 -0.42132042 0 0 Z " fill="#071E3E" transform="translate(960.1875,326.3125)"/>
<path d="M0 0 C4.04822294 1.34940765 5.45210569 3.64750748 8 7 C8.33 7.99 8.66 8.98 9 10 C9.99 10.66 10.98 11.32 12 12 C11.625 14.4375 11.625 14.4375 11 17 C10.34 17.33 9.68 17.66 9 18 C8.443125 16.80375 7.88625 15.6075 7.3125 14.375 C5.32886089 10.3792825 2.97733792 7.30815324 0 4 C-1.32 4.33 -2.64 4.66 -4 5 C-2.68 3.35 -1.36 1.7 0 0 Z " fill="#4E8FF4" transform="translate(52,326)"/>
<path d="M0 0 C0.99 0 1.98 0 3 0 C4.25 2.0625 4.25 2.0625 5 5 C3.95421827 7.60906369 2.57355686 9.63966471 1 12 C-1.4375 11.1875 -1.4375 11.1875 -4 10 C-5 7 -5 7 -3.6875 4.3125 C-3.130625 3.549375 -2.57375 2.78625 -2 2 C-1.34 2 -0.68 2 0 2 C0 1.34 0 0.68 0 0 Z " fill="#061A3C" transform="translate(637,326)"/>
<path d="M0 0 C0.33 0 0.66 0 1 0 C1.02698422 2.43757413 1.04683099 4.87484915 1.0625 7.3125 C1.07087891 8.00279297 1.07925781 8.69308594 1.08789062 9.40429688 C1.10307906 12.5483025 1.00193327 14.99420019 0 18 C-0.1788806 20.39359279 -0.3196752 22.79012601 -0.4375 25.1875 C-0.74314572 30.6805412 -1.38715905 35.73138623 -3 41 C-3.33 41 -3.66 41 -4 41 C-3.56938975 31.51524255 -2.99067589 22.06950476 -2 12.625 C-1.9170166 11.82344482 -1.8340332 11.02188965 -1.74853516 10.19604492 C-1.369888 6.71940935 -0.90189413 3.37740563 0 0 Z " fill="#B12A44" transform="translate(172,318)"/>
<path d="M0 0 C0.75 2.1875 0.75 2.1875 1 5 C-0.8125 7.8125 -0.8125 7.8125 -3 10 C-3.66 10 -4.32 10 -5 10 C-5.66 9.34 -6.32 8.68 -7 8 C-9.10820797 8.3185177 -9.10820797 8.3185177 -11 9 C-10.43416161 5.71813734 -9.58727596 4.10815078 -7 2 C-4.32356113 0.41086442 -3.1819944 0 0 0 Z " fill="#051A3A" transform="translate(608,116)"/>
<path d="M0 0 C0.66 0 1.32 0 2 0 C6 5.29411765 6 5.29411765 6 9 C4.35 9.66 2.7 10.32 1 11 C-0.65 9.35 -2.3 7.7 -4 6 C-3.34 4.68 -2.68 3.36 -2 2 C-1.34 2 -0.68 2 0 2 C0 1.34 0 0.68 0 0 Z " fill="#061A3A" transform="translate(768,215)"/>
<path d="M0 0 C1.98 0.66 3.96 1.32 6 2 C5.31113213 5.38891322 4.01283514 8.18011613 2.4375 11.25 C1.98246094 12.14203125 1.52742187 13.0340625 1.05859375 13.953125 C0.70925781 14.62859375 0.35992188 15.3040625 0 16 C-0.33 15.01 -0.66 14.02 -1 13 C-1.61875 11.63875 -1.61875 11.63875 -2.25 10.25 C-3.28021344 5.78574176 -2.07995598 3.99991535 0 0 Z " fill="#091E3A" transform="translate(644,174)"/>
<path d="M0 0 C0.268125 0.639375 0.53625 1.27875 0.8125 1.9375 C1.88667752 4.33131686 1.88667752 4.33131686 5 5 C4.67 7.31 4.34 9.62 4 12 C2.68 11.67 1.36 11.34 0 11 C-0.103125 10.360625 -0.20625 9.72125 -0.3125 9.0625 C-0.539375 8.381875 -0.76625 7.70125 -1 7 C-1.99 6.67 -2.98 6.34 -4 6 C-4.33 6.99 -4.66 7.98 -5 9 C-5.66 7.68 -6.32 6.36 -7 5 C-4.69 3.35 -2.38 1.7 0 0 Z " fill="#0A274D" transform="translate(955,311)"/>
<path d="M0 0 C2.31 0.33 4.62 0.66 7 1 C6.875 2.8125 6.875 2.8125 6 5 C1.14705882 8.12745098 1.14705882 8.12745098 -2.25 7.75 C-3.51787979 7.20662295 -4.7662163 6.61689185 -6 6 C-5.67 4.68 -5.34 3.36 -5 2 C-3.35 2 -1.7 2 0 2 C0 1.34 0 0.68 0 0 Z " fill="#04193C" transform="translate(659,42)"/>
<path d="M0 0 C2 2 2 2 3 5 C3.99 5.66 4.98 6.32 6 7 C5.01 8.98 4.02 10.96 3 13 C2.443125 12.649375 1.88625 12.29875 1.3125 11.9375 C-1.37976845 10.59915036 -1.37976845 10.59915036 -6 12 C-4.02 8.04 -2.04 4.08 0 0 Z " fill="#12284B" transform="translate(897,35)"/>
<path d="M0 0 C2.97526665 2.55022856 4.50122302 5.40293526 6 9 C5.67 9.99 5.34 10.98 5 12 C3.35 12.33 1.7 12.66 0 13 C-2 10 -2 10 -1.6875 7.0625 C-0.61403509 2.28070175 -0.61403509 2.28070175 0 0 Z " fill="#091D38" transform="translate(645,223)"/>
<path d="M0 0 C0.33 0 0.66 0 1 0 C0.37264145 13.37264273 -0.71107924 26.67552365 -2 40 C-2.33 40 -2.66 40 -3 40 C-3.0289337 36.20834926 -3.04677601 32.41672673 -3.0625 28.625 C-3.07087891 27.54476562 -3.07925781 26.46453125 -3.08789062 25.3515625 C-3.09111328 24.3203125 -3.09433594 23.2890625 -3.09765625 22.2265625 C-3.10289307 21.27346191 -3.10812988 20.32036133 -3.11352539 19.33837891 C-3 17 -3 17 -2 15 C-1.6087065 12.45802036 -1.25520881 9.92608411 -0.9375 7.375 C-0.84662109 6.66859375 -0.75574219 5.9621875 -0.66210938 5.234375 C-0.43816881 3.4899959 -0.21866182 1.74504866 0 0 Z " fill="#AC243D" transform="translate(338,38)"/>
<path d="M0 0 C1.32 1.32 2.64 2.64 4 4 C1.03 6.97 -1.94 9.94 -5 13 C-6 10 -6 10 -5.4375 7.4375 C-5.293125 6.633125 -5.14875 5.82875 -5 5 C-5.66 4.34 -6.32 3.68 -7 3 C-4 3 -4 3 -2 4 C-1.34 2.68 -0.68 1.36 0 0 Z " fill="#152949" transform="translate(969,162)"/>
<path d="M0 0 C-0.33 0.66 -0.66 1.32 -1 2 C-0.01 2 0.98 2 2 2 C2 2.66 2 3.32 2 4 C2.5775 4.28875 3.155 4.5775 3.75 4.875 C4.4925 5.24625 5.235 5.6175 6 6 C6.680625 6.20625 7.36125 6.4125 8.0625 6.625 C11.21090442 8.85935152 12.04692668 12.35377251 13 16 C13 16.99 13 17.98 13 19 C12.34 19 11.68 19 11 19 C10.78085937 18.40832031 10.56171875 17.81664062 10.3359375 17.20703125 C7.84300948 10.9949789 5.21233522 6.87806281 -1.1640625 4.03515625 C-3.0877337 3.29763567 -5.04216793 2.64135878 -7 2 C-7 1.34 -7 0.68 -7 0 C-3.98968256 -0.93423645 -3.13349732 -1.04449911 0 0 Z " fill="#3786E0" transform="translate(44,335)"/>
<path d="M0 0 C0.66 0 1.32 0 2 0 C0.54290754 3.39988241 -0.95937493 5.83955587 -4 8 C-6.82109233 8.03783074 -9.2055536 7.55888928 -12 7 C-11.375 5.125 -11.375 5.125 -10 3 C-6.80798426 1.64169543 -4.47289374 1 -1 1 C-0.67 0.67 -0.34 0.34 0 0 Z " fill="#071C3A" transform="translate(999,135)"/>
<path d="M0 0 C1.65 1.65 3.3 3.3 5 5 C4.67 5.66 4.34 6.32 4 7 C2.68 7 1.36 7 0 7 C-0.33 7.99 -0.66 8.98 -1 10 C-3.64752004 7.42215154 -5.94432065 5.08351902 -8 2 C-7.01 2 -6.02 2 -5 2 C-5 2.66 -5 3.32 -5 4 C-1.87802522 2.6910428 -1.87802522 2.6910428 0 0 Z " fill="#0F2547" transform="translate(897,360)"/>
<path d="M0 0 C2.25 -0.375 2.25 -0.375 5 0 C7.375 2.6875 7.375 2.6875 9 6 C8.75 8.875 8.75 8.875 8 11 C7.71125 10.38125 7.4225 9.7625 7.125 9.125 C6.06279958 6.86674235 6.06279958 6.86674235 4 5 C1.39719432 5.32041397 1.39719432 5.32041397 -1 6 C-1 2 -1 2 0 0 Z " fill="#162B49" transform="translate(996,122)"/>
<path d="M0 0 C0.33 0.66 0.66 1.32 1 2 C2.65 1.34 4.3 0.68 6 0 C6.66 1.32 7.32 2.64 8 4 C6.35 5.65 4.7 7.3 3 9 C2.38125 8.360625 1.7625 7.72125 1.125 7.0625 C-0.82597612 4.96116416 -0.82597612 4.96116416 -3 4 C-2.01 2.68 -1.02 1.36 0 0 Z " fill="#0E2449" transform="translate(596,123)"/>
<path d="M0 0 C1.32 0.33 2.64 0.66 4 1 C4.99 0.67 5.98 0.34 7 0 C9.35188447 0.59793673 11.68925595 1.25881795 14 2 C11.59078295 4.40921705 9.05665491 5.53812156 6 7 C4.02 4.69 2.04 2.38 0 0 Z " fill="#122646" transform="translate(606,293)"/>
<path d="M0 0 C2.95467644 5.12143917 3.12637979 10.47128179 3.09765625 16.2734375 C3.09282227 18.00400391 3.09282227 18.00400391 3.08789062 19.76953125 C3.07951172 20.95933594 3.07113281 22.14914063 3.0625 23.375 C3.05798828 24.58800781 3.05347656 25.80101562 3.04882812 27.05078125 C3.03708354 30.03390507 3.0206584 33.01692679 3 36 C2.67 36 2.34 36 2 36 C1.66189644 31.50034522 1.33037391 27.00022839 1 22.5 C0.90460938 21.2315625 0.80921875 19.963125 0.7109375 18.65625 C0.25624208 12.4204271 -0.12631546 6.25261544 0 0 Z " fill="#A51F36" transform="translate(174,160)"/>
<path d="M0 0 C0.66 0 1.32 0 2 0 C3.66666667 1.66666667 5.33333333 3.33333333 7 5 C6.67 5.66 6.34 6.32 6 7 C5.01 6.67 4.02 6.34 3 6 C2.34 6.66 1.68 7.32 1 8 C0.34 7.67 -0.32 7.34 -1 7 C-1 7.99 -1 8.98 -1 10 C-1.66 10 -2.32 10 -3 10 C-2.49287967 6.28111761 -1.88391785 3.26545761 0 0 Z " fill="#0F2447" transform="translate(631,334)"/>
<path d="M0 0 C2.64 0 5.28 0 8 0 C7.61479436 2.53910197 7.29902057 3.72751123 5.37109375 5.484375 C4.73300781 5.90203125 4.09492188 6.3196875 3.4375 6.75 C2.79683594 7.17796875 2.15617188 7.6059375 1.49609375 8.046875 C0.75552734 8.51867187 0.75552734 8.51867187 0 9 C0 6 0 3 0 0 Z " fill="#B71533" transform="translate(223,263)"/>
<path d="M0 0 C3.26460973 1.80412643 4.88929795 2.83394693 7 6 C6.38125 6.268125 5.7625 6.53625 5.125 6.8125 C2.7004767 7.95556848 2.7004767 7.95556848 1 11 C-0.65 9.02 -2.3 7.04 -4 5 C-2.02 4.67 -0.04 4.34 2 4 C2 3.34 2 2.68 2 2 C1.34 2 0.68 2 0 2 C0 1.34 0 0.68 0 0 Z " fill="#112848" transform="translate(979,102)"/>
<path d="M0 0 C4.55015893 1.51671964 6.50057264 5.16891053 9 9 C6.525 8.01 6.525 8.01 4 7 C3.34 8.32 2.68 9.64 2 11 C0 9 0 9 -0.125 6.625 C-0.08375 5.75875 -0.0425 4.8925 0 4 C0 2.68 0 1.36 0 0 Z " fill="#132744" transform="translate(817,167)"/>
<path d="M0 0 C0.66 0 1.32 0 2 0 C2.5878125 1.7634375 2.5878125 1.7634375 3.1875 3.5625 C4.82209368 7.97118776 7.13782539 11.28690861 10 15 C6.1736558 13.44111903 3.85362504 10.92872044 1 8 C0.34 7.67 -0.32 7.34 -1 7 C-1 7.66 -1 8.32 -1 9 C-1.66 8.67 -2.32 8.34 -3 8 C-2.01 5.36 -1.02 2.72 0 0 Z " fill="#9EA0EC" transform="translate(55,317)"/>
<path d="M0 0 C0.66 1.32 1.32 2.64 2 4 C1.34 4 0.68 4 0 4 C0 4.66 0 5.32 0 6 C-0.66 6 -1.32 6 -2 6 C-2 7.32 -2 8.64 -2 10 C-1.34 10 -0.68 10 0 10 C0 11.65 0 13.3 0 15 C-2.74792483 11.59780735 -6 7.51535412 -6 3 C-4.02 2.67 -2.04 2.34 0 2 C0 1.34 0 0.68 0 0 Z " fill="#152744" transform="translate(638,65)"/>
<path d="M0 0 C1.32 0.66 2.64 1.32 4 2 C3.67 2.66 3.34 3.32 3 4 C2.01 4 1.02 4 0 4 C0 4.66 0 5.32 0 6 C0.66 6.33 1.32 6.66 2 7 C1.01 8.485 1.01 8.485 0 10 C-1.65 8.02 -3.3 6.04 -5 4 C-3.35 2.68 -1.7 1.36 0 0 Z " fill="#0F2649" transform="translate(787,133)"/>
<path d="M0 0 C1.65 1.65 3.3 3.3 5 5 C3.02 6.32 1.04 7.64 -1 9 C-1.99 8.01 -2.98 7.02 -4 6 C-3.34 4.68 -2.68 3.36 -2 2 C-1.67 2.33 -1.34 2.66 -1 3 C-0.67 2.01 -0.34 1.02 0 0 Z " fill="#051A3B" transform="translate(783,128)"/>
<path d="M0 0 C1.65 0.99 3.3 1.98 5 3 C4.34 4.65 3.68 6.3 3 8 C2.01 8 1.02 8 0 8 C-1.6875 5.5 -1.6875 5.5 -3 3 C-2.01 2.01 -1.02 1.02 0 0 Z " fill="#122442" transform="translate(886,352)"/>
<path d="M0 0 C4.01829091 2.00914546 6.5651607 6.32339265 9 10 C10.0625 13.4375 10.0625 13.4375 10 16 C9.34 16.66 8.68 17.32 8 18 C7.67 15.03 7.34 12.06 7 9 C6.01 8.67 5.02 8.34 4 8 C2.15500602 6.12382302 0.6316401 4.07262391 -1 2 C-0.67 1.34 -0.34 0.68 0 0 Z " fill="#318EF6" transform="translate(51,329)"/>
<path d="M0 0 C1.32 0.66 2.64 1.32 4 2 C4 4.62113708 3.68707555 6.50935112 3 9 C0.03824877 8.38722388 -1.38058783 7.74627478 -4 6 C-3 4 -3 4 0 3 C0 2.01 0 1.02 0 0 Z " fill="#041937" transform="translate(957,225)"/>
<path d="M0 0 C0.99 0.66 1.98 1.32 3 2 C2.34 3.65 1.68 5.3 1 7 C0.01 7 -0.98 7 -2 7 C-5.24314437 8.27760233 -5.97958823 8.96938234 -8 12 C-8.66 12 -9.32 12 -10 12 C-8.52278578 8.54798361 -6.56205999 6.35038064 -3.875 3.75 C-3.15054688 3.04359375 -2.42609375 2.3371875 -1.6796875 1.609375 C-1.12539063 1.07828125 -0.57109375 0.5471875 0 0 Z " fill="#1F324D" transform="translate(612,106)"/>
<path d="M0 0 C-0.33 1.32 -0.66 2.64 -1 4 C-1 3.34 -1 2.68 -1 2 C-3.91517292 3.07401108 -5.77810176 3.77810176 -8 6 C-8 5.34 -8 4.68 -8 4 C-10.64 3.67 -13.28 3.34 -16 3 C-16 2.67 -16 2.34 -16 2 C-14.08404518 1.66259915 -12.16720278 1.33023588 -10.25 1 C-9.18265625 0.814375 -8.1153125 0.62875 -7.015625 0.4375 C-4 0 -4 0 0 0 Z " fill="#B1243D" transform="translate(336,313)"/>
<path d="M0 0 C1.65 1.65 3.3 3.3 5 5 C4.34 5 3.68 5 3 5 C2.34 6.65 1.68 8.3 1 10 C-0.32 9.01 -1.64 8.02 -3 7 C-2.67 6.01 -2.34 5.02 -2 4 C-1.34 4 -0.68 4 0 4 C-0.33 3.01 -0.66 2.02 -1 1 C-0.67 0.67 -0.34 0.34 0 0 Z " fill="#071A3A" transform="translate(806,154)"/>
<path d="M0 0 C2 0.3125 2 0.3125 4 1 C5.33332095 3.6666419 4.67102033 5.16680303 4 8 C2.0625 7.3125 2.0625 7.3125 0 6 C-0.8125 3.4375 -0.8125 3.4375 -1 1 C-0.67 0.67 -0.34 0.34 0 0 Z M-3 5 C-2.34 5 -1.68 5 -1 5 C-1.33 5.66 -1.66 6.32 -2 7 C-2.33 6.34 -2.66 5.68 -3 5 Z " fill="#0E213F" transform="translate(961,229)"/>
<path d="M0 0 C1.65 0 3.3 0 5 0 C5 0.99 5 1.98 5 3 C5.66 3 6.32 3 7 3 C7 3.66 7 4.32 7 5 C4.69 5.33 2.38 5.66 0 6 C-1.125 2.25 -1.125 2.25 0 0 Z " fill="#061C3E" transform="translate(974,101)"/>
<path d="M0 0 C0.66 0 1.32 0 2 0 C3.7265625 1.75 3.7265625 1.75 5.625 4 C6.25664063 4.7425 6.88828125 5.485 7.5390625 6.25 C8.02117188 6.8275 8.50328125 7.405 9 8 C8.34 8.66 7.68 9.32 7 10 C5.76302083 8.47005208 4.52604167 6.94010417 3.2890625 5.41015625 C2.0333609 3.86733563 2.0333609 3.86733563 0 3 C0 2.01 0 1.02 0 0 Z M-2 3 C-1.34 3 -0.68 3 0 3 C-0.33 4.65 -0.66 6.3 -1 8 C-1.99 7.01 -2.98 6.02 -4 5 C-3.34 4.34 -2.68 3.68 -2 3 Z " fill="#122946" transform="translate(650,232)"/>
<path d="M0 0 C1.65 1.32 3.3 2.64 5 4 C4.67 5.65 4.34 7.3 4 9 C2.68 9.33 1.36 9.66 0 10 C0 6.7 0 3.4 0 0 Z " fill="#0E2C4D" transform="translate(730,171)"/>
<path d="M0 0 C1.32 0.33 2.64 0.66 4 1 C4 1.99 4 2.98 4 4 C4.66 4.66 5.32 5.32 6 6 C2.625 6.625 2.625 6.625 -1 7 C-1.66 6.34 -2.32 5.68 -3 5 C-2.67 4.01 -2.34 3.02 -2 2 C-1.34 2 -0.68 2 0 2 C0 1.34 0 0.68 0 0 Z " fill="#051C3E" transform="translate(730,48)"/>
<path d="M0 0 C2.64 0 5.28 0 8 0 C8 0.99 8 1.98 8 3 C4.5647952 5.29013653 3.014669 5.17842973 -1 5 C-0.67 3.35 -0.34 1.7 0 0 Z " fill="#031A3C" transform="translate(686,367)"/>
<path d="M0 0 C0.99 0.495 0.99 0.495 2 1 C1.01 1.495 1.01 1.495 0 2 C0 1.34 0 0.68 0 0 Z M-2 1 C-1.34 1.66 -0.68 2.32 0 3 C-0.33 3.66 -0.66 4.32 -1 5 C0.32 5.66 1.64 6.32 3 7 C1.68 7 0.36 7 -1 7 C-1 7.66 -1 8.32 -1 9 C-2.32 9 -3.64 9 -5 9 C-5 7.68 -5 6.36 -5 5 C-4.34 5 -3.68 5 -3 5 C-2.67 3.68 -2.34 2.36 -2 1 Z " fill="#081B37" transform="translate(709,343)"/>
<path d="M0 0 C1.125 1.75 1.125 1.75 2 4 C1.125 6.25 1.125 6.25 0 8 C-0.99 8 -1.98 8 -3 8 C-3.66 6.68 -4.32 5.36 -5 4 C-3.36587557 2.29159719 -2.13093906 1.06546953 0 0 Z " fill="#071F43" transform="translate(964,342)"/>
<path d="M0 0 C0.66 0.99 1.32 1.98 2 3 C0.68 5.64 -0.64 8.28 -2 11 C-2.66 11 -3.32 11 -4 11 C-4 11.66 -4 12.32 -4 13 C-4.66 13 -5.32 13 -6 13 C-4.58707905 8.1725201 -2.57025846 4.2837641 0 0 Z " fill="#1C2D49" transform="translate(583,141)"/>
<path d="M0 0 C0.66 0.66 1.32 1.32 2 2 C1.625 4.125 1.625 4.125 1 6 C-0.98 6.33 -2.96 6.66 -5 7 C-4.75 4.625 -4.75 4.625 -4 2 C-1.9375 0.6875 -1.9375 0.6875 0 0 Z " fill="#061A39" transform="translate(634,339)"/>
<path d="M0 0 C0.33 0 0.66 0 1 0 C2.38766322 6.05525768 1.49118146 9.32010626 -1 15 C-1.33 15 -1.66 15 -2 15 C-2.19392201 9.47322267 -1.7479503 5.24385089 0 0 Z " fill="#17355B" transform="translate(928,161)"/>
<path d="M0 0 C0.33 0.99 0.66 1.98 1 3 C3.50447516 4.21869929 3.50447516 4.21869929 6 5 C4.68 6.32 3.36 7.64 2 9 C0.68 7.35 -0.64 5.7 -2 4 C-1.34 2.68 -0.68 1.36 0 0 Z " fill="#0B2548" transform="translate(625,95)"/>
<path d="M0 0 C0.8353125 0.556875 0.8353125 0.556875 1.6875 1.125 C1.6875 1.785 1.6875 2.445 1.6875 3.125 C-0.9525 2.795 -3.5925 2.465 -6.3125 2.125 C-6.3125 2.785 -6.3125 3.445 -6.3125 4.125 C-7.9625 4.125 -9.6125 4.125 -11.3125 4.125 C-4.26803691 -1.61493289 -4.26803691 -1.61493289 0 0 Z " fill="#192A4B" transform="translate(665.3125,39.875)"/>
<path d="M0 0 C0 0.66 0 1.32 0 2 C-0.66 2 -1.32 2 -2 2 C-2 2.99 -2 3.98 -2 5 C-3.65 5.33 -5.3 5.66 -7 6 C-7.33 5.01 -7.66 4.02 -8 3 C-7.67 2.34 -7.34 1.68 -7 1 C-4.61370553 0.38812962 -2.46459429 0 0 0 Z " fill="#031736" transform="translate(967,60)"/>
<path d="M0 0 C2.97 0.99 5.94 1.98 9 3 C9 3.66 9 4.32 9 5 C7.02 5.33 5.04 5.66 3 6 C0 2.25 0 2.25 0 0 Z " fill="#A39BEF" transform="translate(65,332)"/>
<path d="M0 0 C0.90064221 2.5217982 1.19407719 3.57303018 0.0625 6.0625 C-0.288125 6.701875 -0.63875 7.34125 -1 8 C-1 8.99 -1 9.98 -1 11 C-1.33 10.67 -1.66 10.34 -2 10 C-2.33 10.66 -2.66 11.32 -3 12 C-3.66 12 -4.32 12 -5 12 C-4.54738642 10.56068883 -4.08767021 9.12361001 -3.625 7.6875 C-3.24214844 6.48673828 -3.24214844 6.48673828 -2.8515625 5.26171875 C-2 3 -2 3 0 0 Z " fill="#0C284A" transform="translate(643,174)"/>
<path d="M0 0 C0.66 0 1.32 0 2 0 C0.4169423 4.2742558 -2.50568404 6.26531794 -6 9 C-6 5 -6 5 -5 3 C-4.01 3.33 -3.02 3.66 -2 4 C-2 3.34 -2 2.68 -2 2 C-1.34 2 -0.68 2 0 2 C0 1.34 0 0.68 0 0 Z " fill="#21314C" transform="translate(990,145)"/>
<path d="M0 0 C3.99231996 2.05011025 6.14080646 3.8684588 8 8 C7.67 8.99 7.34 9.98 7 11 C6.34 11 5.68 11 5 11 C4.87625 9.329375 4.87625 9.329375 4.75 7.625 C4.42126213 3.94246056 4.42126213 3.94246056 1.9375 2.5625 C1.298125 2.376875 0.65875 2.19125 0 2 C0 1.34 0 0.68 0 0 Z " fill="#8492F8" transform="translate(60,329)"/>
<path d="M0 0 C3.36720387 1.39332574 4.9859524 2.9789286 7 6 C6.01 6.33 5.02 6.66 4 7 C3.67 6.34 3.34 5.68 3 5 C2.01 5 1.02 5 0 5 C0 3.35 0 1.7 0 0 Z " fill="#0C2A52" transform="translate(929,149)"/>
<path d="M0 0 C0.66 0.33 1.32 0.66 2 1 C1.01 2.485 1.01 2.485 0 4 C3.96 4 7.92 4 12 4 C12 4.33 12 4.66 12 5 C6.72 5 1.44 5 -4 5 C-2.68 3.35 -1.36 1.7 0 0 Z " fill="#9C0A22" transform="translate(276,146)"/>
<path d="M0 0 C0.598125 0.185625 1.19625 0.37125 1.8125 0.5625 C4.16408762 1.22093687 4.16408762 1.22093687 7 0 C5.75453595 3.73639216 4.36595047 4.18756513 1 6 C-0.0625 4.125 -0.0625 4.125 -1 2 C-0.67 1.34 -0.34 0.68 0 0 Z " fill="#75A2CC" transform="translate(963,299)"/>
<path d="M0 0 C0.66 0.33 1.32 0.66 2 1 C0.68 3.31 -0.64 5.62 -2 8 C-2.66 7.67 -3.32 7.34 -4 7 C-3.6875 4.625 -3.6875 4.625 -3 2 C-2.01 1.34 -1.02 0.68 0 0 Z " fill="#172540" transform="translate(961,71)"/>
<path d="M0 0 C2.125 0.375 2.125 0.375 4 1 C4.33 2.65 4.66 4.3 5 6 C2.08482708 4.92598892 0.22189824 4.22189824 -2 2 C-1.34 1.34 -0.68 0.68 0 0 Z " fill="#719FC5" transform="translate(647,345)"/>
<path d="M0 0 C0.99 0.33 1.98 0.66 3 1 C2.67 1.99 2.34 2.98 2 4 C-0.5625 5.1875 -0.5625 5.1875 -3 6 C-3 4.68 -3 3.36 -3 2 C-2.01 1.34 -1.02 0.68 0 0 Z " fill="#031839" transform="translate(825,280)"/>
<path d="M0 0 C0.33 0 0.66 0 1 0 C3 5.625 3 5.625 3 9 C-1.8 5.55384615 -1.8 5.55384615 -2.8125 2.75 C-2.874375 2.1725 -2.93625 1.595 -3 1 C-2.01 1.495 -2.01 1.495 -1 2 C-0.67 1.34 -0.34 0.68 0 0 Z " fill="#79A4CA" transform="translate(901,358)"/>
<path d="M0 0 C-0.33 2.31 -0.66 4.62 -1 7 C-2.32 6.67 -3.64 6.34 -5 6 C-5 4.68 -5 3.36 -5 2 C-2 0 -2 0 0 0 Z " fill="#1C2F49" transform="translate(960,316)"/>
<path d="M0 0 C1.8125 0.1875 1.8125 0.1875 4 1 C5.8125 3.4375 5.8125 3.4375 7 6 C6.67 6.66 6.34 7.32 6 8 C4.99403703 7.0479279 3.99538437 6.08812654 3 5.125 C2.443125 4.59132813 1.88625 4.05765625 1.3125 3.5078125 C0 2 0 2 0 0 Z " fill="#0E1E39" transform="translate(808,269)"/>
<path d="M0 0 C-0.99 1.485 -0.99 1.485 -2 3 C-4.97 2.505 -4.97 2.505 -8 2 C-8 1.34 -8 0.68 -8 0 C-4.94736336 -0.98120464 -3.05263664 -0.98120464 0 0 Z " fill="#769CC2" transform="translate(693,364)"/>
<path d="M0 0 C1.65 0.33 3.3 0.66 5 1 C4.2575 1.5775 3.515 2.155 2.75 2.75 C0.33912357 4.72253526 -1.84042701 6.76044282 -4 9 C-2.80100302 5.9168649 -1.52299523 2.93720508 0 0 Z " fill="#DEE7EE" transform="translate(708,350)"/>
<path d="M0 0 C1.32 0 2.64 0 4 0 C3.67 1.32 3.34 2.64 3 4 C2.34 3.67 1.68 3.34 1 3 C1 3.99 1 4.98 1 6 C0.34 6 -0.32 6 -1 6 C-0.67 4.02 -0.34 2.04 0 0 Z " fill="#1F2E44" transform="translate(629,338)"/>
<path d="M0 0 C0.33 1.32 0.66 2.64 1 4 C-1.64 3.34 -4.28 2.68 -7 2 C-7 1.34 -7 0.68 -7 0 C-3.98968256 -0.93423645 -3.13349732 -1.04449911 0 0 Z " fill="#528CD9" transform="translate(44,335)"/>
<path d="M0 0 C0.33 0 0.66 0 1 0 C1.05389087 1.95803507 1.09274217 3.91648909 1.125 5.875 C1.14820313 6.96554688 1.17140625 8.05609375 1.1953125 9.1796875 C1 12 1 12 -1 14 C-1.99 13.67 -2.98 13.34 -4 13 C-2.68 12.34 -1.36 11.68 0 11 C0 7.37 0 3.74 0 0 Z " fill="#9D132C" transform="translate(331,244)"/>
<path d="M0 0 C1.98 0 3.96 0 6 0 C5.67 1.32 5.34 2.64 5 4 C4.01 4 3.02 4 2 4 C1.34 2.68 0.68 1.36 0 0 Z " fill="#EFF6F9" transform="translate(778,120)"/>
<path d="M0 0 C0.33 1.32 0.66 2.64 1 4 C1.66 4.33 2.32 4.66 3 5 C1.35 5.66 -0.3 6.32 -2 7 C-2 7.66 -2 8.32 -2 9 C-2.66 8.67 -3.32 8.34 -4 8 C-2.68 5.36 -1.36 2.72 0 0 Z " fill="#202F4B" transform="translate(639,319)"/>
<path d="M0 0 C0.66 0.66 1.32 1.32 2 2 C1.34 2 0.68 2 0 2 C-0.2475 2.61875 -0.495 3.2375 -0.75 3.875 C-2.20628639 6.35068687 -3.37812506 6.95125002 -6 8 C-4.26440562 4.942048 -2.61527381 2.36620011 0 0 Z " fill="#6E96BB" transform="translate(954,231)"/>
<path d="M0 0 C2.31 0.33 4.62 0.66 7 1 C6.67 2.98 6.34 4.96 6 7 C5.01 7 4.02 7 3 7 C3.33 5.35 3.66 3.7 4 2 C2.68 1.34 1.36 0.68 0 0 Z " fill="#1E2E48" transform="translate(951,223)"/>
<path d="M0 0 C0.99 0 1.98 0 3 0 C3.66 1.65 4.32 3.3 5 5 C4.34 5.66 3.68 6.32 3 7 C1.68 5.02 0.36 3.04 -1 1 C-0.67 0.67 -0.34 0.34 0 0 Z " fill="#73A1C8" transform="translate(759,201)"/>
<path d="M0 0 C0.99 0.33 1.98 0.66 3 1 C2.67 2.65 2.34 4.3 2 6 C1.01 6 0.02 6 -1 6 C-1.042721 4.33388095 -1.04063832 2.66617115 -1 1 C-0.67 0.67 -0.34 0.34 0 0 Z " fill="#172B4A" transform="translate(641,189)"/>
<path d="M0 0 C0.66 0.33 1.32 0.66 2 1 C2 2.32 2 3.64 2 5 C0.35 5.66 -1.3 6.32 -3 7 C-1.125 2.25 -1.125 2.25 0 0 Z " fill="#E5ECF0" transform="translate(650,177)"/>
<path d="M0 0 C2.31 1.98 4.62 3.96 7 6 C6.67 6.66 6.34 7.32 6 8 C2.24623848 6.74874616 1.75926711 5.4347596 0 2 C0 1.34 0 0.68 0 0 Z " fill="#122138" transform="translate(993,115)"/>
<path d="M0 0 C0 0.66 0 1.32 0 2 C-0.99 2 -1.98 2 -3 2 C-3 2.66 -3 3.32 -3 4 C-5.31 4.33 -7.62 4.66 -10 5 C-3.63636364 0 -3.63636364 0 0 0 Z " fill="#769DC4" transform="translate(663,48)"/>
<path d="M0 0 C1.65 0 3.3 0 5 0 C5.33 0.99 5.66 1.98 6 3 C5.01 3 4.02 3 3 3 C2.34 3.66 1.68 4.32 1 5 C0.67 3.35 0.34 1.7 0 0 Z " fill="#051B3D" transform="translate(699,353)"/>
<path d="M0 0 C0.66 0.66 1.32 1.32 2 2 C-1.68266103 1.40049704 -5.34543185 0.75241109 -9 0 C-9 -0.33 -9 -0.66 -9 -1 C-5.2232373 -2.04910075 -3.31615055 -2.17265036 0 0 Z " fill="#6C96BA" transform="translate(718,343)"/>
<path d="M0 0 C1.32 0.33 2.64 0.66 4 1 C-1.17578125 4.22265625 -1.17578125 4.22265625 -3 5 C-3.99 4.67 -4.98 4.34 -6 4 C-4.35 3.67 -2.7 3.34 -1 3 C-0.67 2.01 -0.34 1.02 0 0 Z " fill="#D8F4FE" transform="translate(44,330)"/>
<path d="M0 0 C0.66 0 1.32 0 2 0 C0.54744301 3.82946843 -1.42895561 5.12050295 -5 7 C-5 6.01 -5 5.02 -5 4 C-3.35 3.34 -1.7 2.68 0 2 C0 1.34 0 0.68 0 0 Z " fill="#192A46" transform="translate(974,304)"/>
<path d="M0 0 C0.66 0.33 1.32 0.66 2 1 C1.6875 2.9375 1.6875 2.9375 1 5 C0.01 5.33 -0.98 5.66 -2 6 C-2.33 4.35 -2.66 2.7 -3 1 C-2.01 0.67 -1.02 0.34 0 0 Z " fill="#071C3B" transform="translate(789,241)"/>
<path d="M0 0 C1.32 1.32 2.64 2.64 4 4 C3.01 4.99 2.02 5.98 1 7 C0.01 6.67 -0.98 6.34 -2 6 C-1.34 5.67 -0.68 5.34 0 5 C0 3.35 0 1.7 0 0 Z " fill="#102742" transform="translate(852,206)"/>
<path d="M0 0 C0.99 0.99 1.98 1.98 3 3 C2.01 4.485 2.01 4.485 1 6 C0.01 6 -0.98 6 -2 6 C-1.34 4.02 -0.68 2.04 0 0 Z " fill="#06183B" transform="translate(821,173)"/>
<path d="M0 0 C4.62 0 9.24 0 14 0 C12.515 1.485 12.515 1.485 11 3 C10.67 2.67 10.34 2.34 10 2 C8.31816052 1.76712992 6.6287584 1.58735834 4.9375 1.4375 C4.01839844 1.35371094 3.09929687 1.26992187 2.15234375 1.18359375 C1.08693359 1.09271484 1.08693359 1.09271484 0 1 C0 0.67 0 0.34 0 0 Z " fill="#161616" transform="translate(256,140)"/>
<path d="M0 0 C-2.6465335 2.6465335 -5.56221264 3.59941997 -9 5 C-8 2 -8 2 -5.625 0.25 C-3 -1 -3 -1 0 0 Z " fill="#749BC2" transform="translate(646,58)"/>
<path d="M0 0 C0 0.99 0 1.98 0 3 C-1.75 4.0625 -1.75 4.0625 -4 5 C-5.32 4.67 -6.64 4.34 -8 4 C-5.36 2.68 -2.72 1.36 0 0 Z " fill="#142642" transform="translate(641,50)"/>
<path d="M0 0 C3.24208567 0.35049575 4.61527704 0.56221181 6.8125 3.0625 C7.204375 3.701875 7.59625 4.34125 8 5 C7.01 5 6.02 5 5 5 C4.67 4.01 4.34 3.02 4 2 C2.68 2 1.36 2 0 2 C0 1.34 0 0.68 0 0 Z " fill="#0E1E34" transform="translate(693,28)"/>
<path d="M0 0 C1.65 1.65 3.3 3.3 5 5 C2.03 4.505 2.03 4.505 -1 4 C-0.67 2.68 -0.34 1.36 0 0 Z " fill="#0E2B50" transform="translate(883,345)"/>
<path d="M0 0 C0.99 0.33 1.98 0.66 3 1 C3 2.98 3 4.96 3 7 C2.01 6.67 1.02 6.34 0 6 C0 4.02 0 2.04 0 0 Z " fill="#15233A" transform="translate(629,58)"/>
</svg>
